<svg xmlns="http://www.w3.org/2000/svg" xmlns:xlink="http://www.w3.org/1999/xlink" viewBox="0 0 50.88 77.67"><g><path fill="currentColor" d="M38.18,17.72s.1-.11.09-.15-.08-.17-.15-.18-.24.09-.21.22.19.1.27.11m.08.72c-.13-.1-.3.09-.33.12-.21.19-.41.45-.29.63s.41.1.55,0,.26-.57.07-.72m1.49-1.07c0-.05-.08-.12-.13-.13s-.18,0-.17.15.15.14.18.13.13-.1.12-.15M44,20a.47.47,0,0,0,.08.58.09.09,0,0,0,.13,0,.47.47,0,0,0,0-.58A.12.12,0,0,0,44,20M41.82,31c-.09.06-.19.62-.36.61s-.09,0-.1-.07a1.77,1.77,0,0,1,.09-1c.07-.29-.2-.85.17-1,.17-.06.17.24.25.24s.07,0,.08-.06a3.26,3.26,0,0,0,.16-1,16.67,16.67,0,0,0,.65-2.71A17.3,17.3,0,0,0,42.23,24c-.08-.18-.28-.27-.25-.45.06-.37.42-.62.31-1a.43.43,0,0,1,.12-.36.9.9,0,0,0,.28-.76,3.12,3.12,0,0,1,.13-.59c0-.06.07-.13.06-.16-.31-.54.16-1.05.07-1.59s.36-.63.55-.94c.07-.13.52-.46.75-.18s-.42.49-.31.69c.25.48.11.77.45.91.15.06.36-.23.54-.09A.42.42,0,0,1,45,20c-.12.12-.3-.09-.4,0a.22.22,0,0,0-.06.14,3.47,3.47,0,0,1-.06.45c-.12.57-.25.28-.87.32-.29,0-.37.65-.07.72s.17-.3.29-.3c.51,0,.81,1.5,0,1.4-.3,0,.09-.73-.21-.81s-.43.62-.34,1a.42.42,0,0,1-.13.5.46.46,0,0,0-.11.57c.09.27.11.73.41.78s.29-.4.5-.45,0,1.22-.31,1c-.1-.06,0-.35-.15-.38s-.24.17-.25.26c-.06.44-.11.88-.14,1.33,0,.08,0,.39.21.35s0-.44.11-.55a.12.12,0,0,1,.1,0c.28.14.28.57.39.86a.74.74,0,0,0,.38.42,1.14,1.14,0,0,1,.59,1.11c0,.4.2,1-.2,1.23s-.22-.54-.31-.79,0-.79-.25-.83c-.11,0-.08.21-.14.24-.3.14-.72-.41-1-.19s-.05.35,0,.51a1.32,1.32,0,0,1-.15.87,1.32,1.32,0,0,0-.07.49c0,.56-.41.46-.88.8m-2-12.61a.36.36,0,0,0-.16-.11s-.14,0-.13.13.14.09.2.1.09-.11.09-.12m1.76,6.24c-.17-.11.17-.6-.13-.65s-.2.28-.19.36a1,1,0,0,0,.11.49c.11.18.34.32.39.51a3.52,3.52,0,0,1-.06.71c0,.31-.18.71.06,1a.25.25,0,0,0,.31,0c.18-.16,0-.45,0-.65s0-.55,0-.83a1.87,1.87,0,0,0,0-.88c0-.1.06-.25.07-.37s.11-.28,0-.36c-.27-.24-.26.88-.59.67m1,2.36c0-.09-.06-.34-.23-.3s.18.43.23.3M37.87,33c-.08-.13-.29-.14-.34-.22-.21-.31.16-.93-.19-1s-.18.54-.16.79-.18.88.12,1.08.7-.42.57-.62M35.3,43.35c.12-.08.12-.47-.09-.51s-.07.61.09.51m4.34-13.44c.26,0,.33-.51.08-.54s-.38.53-.08.54m-.93-6.39s.14,0,.15,0,.12-.2.07-.28a.11.11,0,0,0-.13,0,.25.25,0,0,0-.09.32m2.12,5.53c.22-.09.35-.7,0-.71-.58,0-.43.88,0,.71m-1-8.26c-.2.09,0,.44-.08.52a.86.86,0,0,0-.29.75c0,.29-.34.72,0,.92s.44-.29.63-.25.27.15.25.28c0,.35-.53.4-.77.6,0,0-.15.16-.07.25s.39-.3.52-.08-.21.34-.26.33c-.29-.06-.33.19-.35.34s.12.48,0,.74c-.15.43-.62,1.13-.22,1.14s.53-.48.67-.27c.83,1.24,1,0,1.39-.11a.32.32,0,0,0,.23-.17c0-.09,0-.28-.09-.28-.32,0-.56-.35-.93-.25s-.68-.11-.5-.42c.27-.47.39-.82.62-1.23A6.52,6.52,0,0,0,41,21.74c.07-.36,0-.69.1-1a.35.35,0,0,0,0-.38c-.13-.15-.31.12-.48.21s-.19.37-.45.44-.17-.25-.27-.2M39,20.08c.19.15.78.05.54-.3-.09-.13-.31-.28-.48-.17s-.22.35-.06.47m.83-.56a1.92,1.92,0,0,0,.09.77.28.28,0,0,0,.51,0,.74.74,0,0,0-.34-.81.33.33,0,0,0-.26.08m.31-.85c-.16-.23-.51.45-.18.42.15,0,.27-.3.18-.42m-2.22,5.68c0-.07-.11-.18-.19-.16a.16.16,0,0,0-.11.21c0,.07.14.08.22.1s.1-.13.08-.15m-.42,1.82a.25.25,0,0,0,.22-.23.09.09,0,0,0-.07-.08.26.26,0,0,0-.23.23.09.09,0,0,0,.08.08m-.46.49a.24.24,0,1,0-.43.22c.11.18.54,0,.43-.22m-.07-.3s.07-.09.06-.13,0-.21-.14-.2-.1.2-.09.25.11.07.17.08m.9-3.14a.27.27,0,0,0-.09.23c.1.23.41.31.5.08s-.19-.38-.41-.31m3.46,5.6c0,.23-.4.5-.21.74.36.47.52-.4.59-.69s-.2-1-.54-.76.17.5.16.71M35.74,42.6s0-.11-.06-.11-.16,0-.16.08.1.08.14.09.09,0,.08-.06M35.62,41a.51.51,0,0,0,.09-.65.13.13,0,0,0-.14,0,.53.53,0,0,0-.14.64.14.14,0,0,0,.19,0m.06-1.31a.16.16,0,0,0-.13.14.08.08,0,0,0,.06.1c.07,0,.11-.07.14-.13a.12.12,0,0,0-.07-.11M42,27.55A.3.3,0,0,0,42,27.3a.23.23,0,0,0-.19-.05,1.24,1.24,0,0,0-.25.35c-.09.15-.14.53.16.46s.25-.34.34-.51M35.3,42.46c0-.05-.07-.14-.14-.13s-.08.09-.07.13,0,.19.14.18.09-.15.07-.18M46,54.11c-.26.24.15.86.43.65.47-.34-.07-1-.43-.65M43,34.4a.1.1,0,0,0,.1.07.09.09,0,0,0,0-.09s0-.09-.09-.09a.09.09,0,0,0-.05.11m-1.58-.71c-.2-.11-.65.22-.46.43s.81-.24.46-.43m2.25-2.64s.11,0,.16,0c.21-.06.33-.7-.06-.57-.23.07-.19.41-.1.54M43,39.53s0-.13-.09-.14-.1.08-.11.12,0,.12.06.13.11-.07.14-.11m2.62-1.09c-.58.14-.8,1.34-.29,1.54.75.29,1.05-1.74.29-1.54m-1.64-5.88s.09,0,.09-.08c0-.31-.11-1-.42-.81s.06.5.12.74a.25.25,0,0,0,.21.15m-1.83.34c.78.06.52-1.49-.08-1.71-.1,0-.25.22-.21.31s.2.23.25.4c.15.56-.41,1,0,1m-6.46,6.24c.29,0,.14-.3.12-.47s.21-.35.1-.54-.07-.39-.24-.21c-.32.36-.19,1.18,0,1.22m-.07-3.08a.18.18,0,0,0,.21.09.07.07,0,0,0,0-.08.18.18,0,0,0-.22-.09.08.08,0,0,0,0,.08m8.05-3.31c-.15-.17-.39.13-.27.23s.42-.07.27-.23m-6.45-3c0,.27.35.29.18.51,0,.05,0,.27.09.32.6.23.7-1,.27-1.24-.25-.14-.54.19-.54.41m6,4c0-.15.13-.41,0-.46s-.13.13-.17.22-.19.25-.14.38.32.12.33-.14M41,43.76h0m-3.48-13c-.39-.08-.37.75,0,.77s.32-.7,0-.77m8,18.42c.14-.11.38-.23.36-.41a.47.47,0,0,0-.51-.37c-.21,0-.31.34-.15.6.06.1.26.21.3.18m-.66-17.35c.09,0,.08-.15.08-.21s.07-.26,0-.29c-.31-.06-.3.51,0,.5M45.52,35c-.26.12-.09.53,0,.65a.15.15,0,0,0,.17,0c.17-.13.11-.78-.22-.63m.42-6.13s0-.11-.1-.11a.12.12,0,0,0-.11.12.14.14,0,0,0,.13.11s.08-.09.08-.12m.38,4.45c-.71.16-.36,1,0,.85.63-.19.4-.95,0-.85m-.83,7.51c.31,0,0-.69-.16-.49a.3.3,0,0,0,.16.49m.26-9.19a.72.72,0,0,1,.11.19c.06.3.17.5.53.55s.22.22,0,.39-.19.05-.2.16c0,.34.5.28.68.1a.56.56,0,0,0,.14-.71,1.48,1.48,0,0,1-.06-.7c0-.27.13-.67-.23-.72-.18,0-.36.23-.55.17-.41-.14-.41-.45-.56-.36s-.2.56,0,.81a.68.68,0,0,1,.12.12m-1.45,1.6a.22.22,0,0,0,.05.18c.4.38.88-.3.81-.65-.17-.84-.84-.34-.86.47m1.28-14.52a.35.35,0,0,0-.2.28c.09.47.16,1.46.75,1.19a.35.35,0,0,0,.13-.34,6.3,6.3,0,0,0-.36-1,.35.35,0,0,0-.32-.13M46,40.67c.37,0,0-.65-.17-.54s0,.17.06.25,0,.28.11.29m-1.3-20.18c0,.13.15.15.22.19s.13-.1.12-.12a.47.47,0,0,0-.15-.19s-.18,0-.19.12m1.14,0a.85.85,0,0,0-.44.61c0,.26-.25.6,0,.81a.31.31,0,0,0,.47,0c.17-.29-.14-.51,0-.72a2.22,2.22,0,0,0,.25-.42.3.3,0,0,0,0-.25.25.25,0,0,0-.25,0m-1.29,6.43c.28.1.56-.51.24-.65s-.52.55-.24.65m.41-4.16c-.25.11-.18.71,0,.74.54.07.24-.87,0-.74m.41,2.38c-.43.18-.68-.41-.6-.91,0-.07,0-.25-.11-.25-.36,0-.59,1.46-.09,1.51s.41-.2.84.06a.68.68,0,0,1,.23.75,1.45,1.45,0,0,0,.58,1.53.23.23,0,0,0,.25,0c.2-.19,0-.58.09-.74s-.1-.49-.05-.73c0-.09,0-.21.06-.27.3-.28.32-.77,0-.83s-.37.68-.67.54,0-.43,0-.62a4.45,4.45,0,0,0,0-.5A3.1,3.1,0,0,1,46,23.18c0-.14,0-.49-.23-.35-.69.38.37,2-.38,2.27m-1.34,2s0,.12.09.11.09-.09.11-.15-.05-.11-.12-.1-.09.1-.08.14m6.61,35.19a.16.16,0,0,0-.13-.19s-.09.08-.1.13,0,.14.1.15a.13.13,0,0,0,.13-.09m-2-.5c-.18.1-.19.34,0,.39s.28-.19.18-.36a.18.18,0,0,0-.19,0m-.9.16c.27,0,.26-.66,0-.66s-.27.74,0,.66m.32-2a7.44,7.44,0,0,0,.06,1.32c0,.25.47.07.64,0,.47-.19,0-.63-.11-.9s-.13-.15-.07-.32c.14-.39-.07-1.19-.47-1.18s-.14.43-.11.66,0,.32.06.42m.47,2.78a.28.28,0,0,0,.14.4c.27,0,0-.59-.14-.4m-2.7-46.21a.41.41,0,0,0-.36.24,1.78,1.78,0,0,0,.26,1.43c.09.18.24.58.45.48.66-.3.55-2-.35-2.15m3.68,46.62c.06.21.26.28.38.15s.08-.09.06-.13-.24-.1-.37-.14-.08.09-.07.12m.41-1.66c.06.11.14.4.35.33s.07-.25.05-.31A11,11,0,0,0,49.48,59s-.06-.13-.14-.11-.11.3-.23.31S49,59,48.85,59s-.11,0-.1.07a8.57,8.57,0,0,0,1.19,2.47m-2.78-2.32a.25.25,0,0,0-.09-.3.13.13,0,0,0-.16.06.26.26,0,0,0,.14.29.09.09,0,0,0,.11,0m.12-12.67c0,.1,0,.24.06.37a4.87,4.87,0,0,1,0,.54,4,4,0,0,0-.07.9c.09.51-.11,1.46.41,1.5.79.06.29-5-.31-5s-.27.77-.16,1.11a.7.7,0,0,1,.05.53m-1.09.82c-.13.28.15.16.33.27s-.13.86.27.84.16-.36.12-.56-.1-.32,0-.43c.2-.45-.11-.87,0-1.3a1.71,1.71,0,0,0,0-.55c0-.19-.11-.68-.4-.45s-.15.87-.18,1.3.11.57,0,.88m1.78,10c-.58-.14-.54,1.49.05,1.45s.44-1.33-.05-1.45M46.33,44s-.1-.09-.15-.09-.25,0-.27.09.25.23.31.21.09-.13.11-.21m1.23,15.18c-.22,0-.52.31-.38.55.27.46.91-.47.38-.55m.35-4.77c.15-.15,0-.51-.18-.51-.44,0-.07.78.18.51M46.38,42.19c.12-.2-.1-.4-.24-.45s-.56.23-.36.43.46.23.6,0m-5-24.58c-.86.61-1.56,1.57-.83,2.1.19.14.51-.28.72-.12s-.12.64.06.86.26,0,.3.09-.22.28-.26.43a.33.33,0,0,0,.13.31.36.36,0,0,0,.32-.11c.1-.17.1-.43.24-.56s-.08-.43,0-.74c0-.14.24-.08.26-.1.16-.23-.06-.54.06-.72a1.73,1.73,0,0,0,.4-1.19c.26-.18.73.26.84,0,.21-.46-.29-.75-.09-1.08a2,2,0,0,0,.32-1.08,2,2,0,0,0-.09-.35,1.21,1.21,0,0,1,.36-1.12c0-.07.11-.24,0-.31s-.46,0-.61.14.07.53-.13.65-.17-.06-.24-.09-.18-.1-.25-.08c-.5.19,0,.27.17.8.06.16-.14.33-.15.5s.31.43.11.61-.49,0-.56-.18.28-.71-.11-.69-1.18.16-.93.72a.77.77,0,0,0,.93.31c.08,0,.25,0,.29.1a.07.07,0,0,1,0,.06c-.25.15-.64-.18-.86,0s0,.29-.08.4a2.1,2.1,0,0,1-.32.42m.19,3.8c-.4,0-.56,1.5-.39,1.7s.33,0,.36-.21a11.67,11.67,0,0,0,.19-1.16c0-.09,0-.33-.16-.33M41.12,17c-.19.15.09.46.24.36s0-.52-.24-.36M44,12.76c0,.11.19.28.28.21s0-.29-.15-.32a.13.13,0,0,0-.13.11m-4.2,15.73c-.07.09-.21.29-.1.35.76.46.79-.92.83-1.56,0-.33-.15-.73-.42-.54-.1.07-.05.25,0,.36a2,2,0,0,1-.27,1.39M43,18.32c0-.09-.13-.22-.2-.17s0,.22.08.25a.1.1,0,0,0,.12-.08m2.83-4.57c-.3.34-.49,1.19.08,1.16s.25-.38.26-.75a1.24,1.24,0,0,1,0-.55,2.79,2.79,0,0,0,.23-1.42c0-.17.17-.56-.07-.53-.46.07-.34.8-.26,1.06a1,1,0,0,1-.28,1m.42,2.17c.15.18-.16.49,0,.67a.12.12,0,0,0,.14,0,.46.46,0,0,0,.21-.41c0-.39.34-1.08-.1-1.19a.59.59,0,0,0-.58.3c-.32.43.07.24.36.59M44,16.77a.35.35,0,0,0,.06.32c.21.08.25-.11.28-.25a3.13,3.13,0,0,1,0-.44c.09-.2,0-.56.38-.55a.75.75,0,0,0,.34-.24.89.89,0,0,0,0-1,1,1,0,0,1-.06-.42c0-.53.1-.69-.63-.74,0,0-.07,0-.1,0s.08.45,0,.77a2.25,2.25,0,0,0-.15.31c-.12.34-.38.68-.32,1,0,.07.11.11.13.18a1.44,1.44,0,0,1,0,1M65.1,59.45c-.23-.11-.86.66-.57.75s.41-.26.56-.46.1-.24,0-.29m-.69.93c-.13-.14-.26,0-.39.06-.41.21-.64.71-.53.88s1.11-.75.92-.94m-6.84.31s0-.06-.07-.06a.35.35,0,0,0-.28.35.08.08,0,0,0,.08.06.34.34,0,0,0,.27-.35M43.12,44.63s.06,0,.08,0a.31.31,0,0,0,0-.44c-.28-.22-.19.28-.13.42M45.42,52c-.21.08-.26-.43-.45-.34-.58.27-.34,1.86.32,1.79s.49-2.49.41-2.6-.13-.06-.14,0,0,.37,0,.56.1.52-.12.6M32.62,66.61s0-.38-.3-.27,0,.28,0,.34a.21.21,0,0,0,.19.1.22.22,0,0,0,.1-.17m-1.53-1.33c-.06-.2-.33-.27-.49-.41s-.26-.4-.49-.46-.59-.16-.63.11.31.12.32.18c.09.51.63.48.91.76s.44,0,.38-.18m-8.68-1.4c0-.2-.33-.34-.52-.3s-.09.08-.1.13c-.08.34.58.47.62.17m-.61.62c-.06-.1-.25,0-.27.06s.39.12.27-.06m-.36,0c.12-.08.18-.39,0-.49a.34.34,0,0,0-.47.25c0,.22.35.32.47.24m1.11-3c0,.16.47.45.49.14,0-.16-.25-.31-.41-.28a.14.14,0,0,0-.08.14m-2,2c0-.14-.46-.4-.44,0,0,.21.26.22.36.19s.07-.11.08-.17m-.15-.86s.25.17.29,0c.08-.34-.39-.54-.6-.72s-.29-.27-.39-.08a.21.21,0,0,0,.06.22c.26.19.36.41.64.57m-1.48-1.27c.21.14.45.51.65.36.41-.3-.82-1.14-1-1s.16.49.32.61m1.19-.66a.32.32,0,0,0,.06.27c.3.15.64-.08.84-.31.34-.39-.17-1.17-.46-.74-.09.14.38.23.29.41s-.36,0-.46,0a.6.6,0,0,0-.27.32M44.36,39.1c.22-.24.5-1.05.16-1.34-.55-.47-.69.14-.79.51a2.6,2.6,0,0,0,.07,1.46c0,.05.07.21.21.17.32-.08.19-.62.35-.8m.23-1.68a.07.07,0,0,0,.08,0c.07,0,.14-.14.11-.21a.07.07,0,0,0-.08,0,.18.18,0,0,0-.11.21M42,44.5c.3-.44-.4-1-.26-1.51s-.32-1.63.32-1.48c.17,0,0,.43.17.42.74,0,.56-1.49,0-1.4-.31,0,.17.75-.16.77s0-.59-.23-.7-.53.17-.72.35c-.58.53-.82,1.73-.19,2.14.27.17.33-.33.31-.56a1.68,1.68,0,0,1,0-.55c0-.09.13-.3.27-.25.77.25-.18,1.36-.39,2a.13.13,0,0,1-.15,0s0-.07,0-.11a.08.08,0,0,0,0,0s0-.09-.07-.06c-.21.1-.06.46,0,.66s.38,0,.46.24-.32.44-.24.67c.14.43-.23.81.09,1s.38-.28.39-.53,0-.37,0-.56.23-.26.41-.52m-.77-7c-.07-.17-.32-.12-.41-.05s0,.27,0,.4a.11.11,0,0,0,.12.05c.13,0,.38-.19.29-.4m-1.34-2.14c.14-.2.09-.76-.24-.79-.16,0-.1.21-.15.26s-.19.23-.31.26S39,35,39,34.85s0-.42-.24-.45-.33.42-.21.67,0,.26-.16.37c-.29.26-.51-.16-.76-.08s-.73.66-.53,1c.36.58.4.24.85.51a.35.35,0,0,0,.41-.11c.07-.07,0-.25.07-.31s.28.14.35.13c.35,0,.87-.24.81-.58s-.7-.26-.37-.55c.17-.15.57.17.72,0m-1.68,2.73c-.53-.15-.73,1-.35,1.12s.8-1,.35-1.12m.58-.86c.36-.08-.12-.75-.31-.45s.14.5.31.45m0,.73c.24,0,.24-.48.1-.56s-.48.59-.1.56m-1.58-2.59c.08-.06,0-.2,0-.3s-.09,0-.09,0-.16.19-.12.28a.15.15,0,0,0,.19,0m0-.73c0,.18.26.43.46.3s.09-.47-.06-.54a.3.3,0,0,0-.4.24m8.12,2.78c.12.11.32,0,.38-.11a.11.11,0,0,0,0-.12c-.11-.12-.56,0-.35.23M66.27,60.13a58.78,58.78,0,0,0-14.62,18.4c-1.81,3.63-4.6,11.07-7.91,10.8C39.83,89,35,81.67,30.49,75.89c-2.61-3.35-7.54-8.08-7.66-8.28s.37-.34.24-.64a2.85,2.85,0,0,0-.22-.6.8.8,0,0,0-.44-.27c-.42-.09-.4-.46-.74-.77-.08-.08-.24,0-.33,0s-.06,0-.06-.05c-.24-.7-.88-1-1.37-1.52s-1-1-1.56-1.46c0,0-.12-.11-.07-.19.21-.38.48.31.71.45s.72.58.85.43S18.57,61.8,18,61.2s-2.18-1-1.73-1.66c.3-.46,1.68,1.44,2,1.14s-.68-.87-1.53-1.55c-.09-.06,0-.24-.09-.3s-.42,0-.53-.12a.12.12,0,0,1,0-.13.51.51,0,0,1,.45-.26c.74,0,1.34,1.77,1.94,1.18.42-.4-1.41-.72-.94-1.06.78-.55,1.35,1.66,2.21,1.54a.07.07,0,0,0,.06-.08c0-.16-.6-.18-.44-.46s.37.07.48.11.4.3.58.15,0-.05,0-.13a.28.28,0,0,1,.38-.15c.11.11.18.26.31.32.38.18,1,.15,1.12.51s-.35.47-.37.69a.26.26,0,0,0,.44.18c.07-.11-.07-.25,0-.35s.38.36,1.08.33c.11,0,.17-.15.27-.2s.33-.2.4,0-.38.23-.34.44.24.19.36.24a1.9,1.9,0,0,1,.78.54c.32.4.87.35,1.34.44.13,0,.43-.07.42.12s-.69.11-.73.42c-.08.76,1.05.68,1.37.94a1,1,0,0,0,1,0c.15-.07.38-.31.54-.15s-.22.35-.11.45a.62.62,0,0,0,.9-.28c.1-.51-1-.47-1-.87a.11.11,0,0,1,.07-.1c.32-.07.57.32.84.5.48.32.93.68,1.42,1a18.46,18.46,0,0,1,2.36,1.87c1.46,1.31,2.1,1.61,2.4,1.32.72-.68-.31-6.08-.43-7.16a72.68,72.68,0,0,1-.08-16.78.66.66,0,0,1,.05-.15c.12-.15.27-.4.48-.36s0,.44.24.38c.43-.1-.26-1,.09-1.15s0,.78.25.73.1-.33.12-.47c0-.47.17-.31.4-.63.38-.53.12-1.28.19-1.91a.72.72,0,0,1,.19-.38c.36-.39.23-1.07-.26-.73-.28.19-.06.66-.09,1a.38.38,0,0,1-.06.22c-.07.07-.16.2-.26.17s-.16-.18-.15-.26c0-.26.08-.52.12-.78s-.06-.53.11-.84a.42.42,0,0,1,.26-.22c.15,0,.31.15.45.11.37-.1.29-.54.11-.84-.09-.15,0-.52-.24-.53s0,.65-.32.62c-1-.12-.63-2-.27-2.91.11-.28.75-.28.78-.65,0-.12-.32-.17-.18-.39a.26.26,0,0,1,.26-.1c.15,0,.18.27.26.3a1.25,1.25,0,0,0,1.3-.24c.11-.11.08-.35,0-.55a.5.5,0,0,0-.25-.32c-.19-.07-.24.1-.28.26a.36.36,0,0,1-.08.24.14.14,0,0,1-.14,0c-.14-.34-.27-.67-.4-1a.14.14,0,0,1,0-.11c.31-.38.36-.93.83-1.21A1,1,0,0,0,38.85,30a.17.17,0,0,0-.21,0c-.27.22-.22,1.07-.61.78a.31.31,0,0,1,0-.34c.39-.32.25-.8.39-1.18a2.32,2.32,0,0,0,.2-1.13c0-.21-.13-.58-.4-.36s0,.81-.3,1-.44-.52-.38-.78c.09-.41.76-.5.8-.89A3.23,3.23,0,0,0,38,25.43.35.35,0,0,1,38.2,25c.21-.06.31.08.39.24s.14.12.11.23-.32.13-.41.26.24-.08.57.3c.16.18-.27.67,0,.79.1,0,.13-.1.15-.14s.27-.31.46-.21.09.27,0,.44-.3.6-.17.9a1.93,1.93,0,0,1,.13,1.37c-.07.3-.22.62,0,.86s.48.62.8.49,0-.33.11-.43,0,.58.49.85c.08.05.16-.19.27-.14.37.19-.65,1.28.07,1.24.23,0,.73-.81.52.45-.05.29-.06.69-.33.82s-.44-.16-.47-.56c0-.2.18-.69-.17-.61s-.34.42-.52.62c-.06,0-.26,0-.31.08s.29.24.3.43-.32.27-.24.45.14,0,.18,0a1.59,1.59,0,0,0,.27-.18c.07-.07.16-.3.27-.2s0,.18,0,.24a.54.54,0,0,0-.1.57.51.51,0,0,1,0,.27,11.27,11.27,0,0,0-.34,1.23c0,.22-.09.56.1.72s.42-.11.35-.36-.29-.35-.21-.55.32-.38.52-.27-.18.81.11.89.24-.11.67-.33,0-.63.08-.88A4.59,4.59,0,0,0,42,33.8c0-.34.4-.32.51-.54.49-1,.07-1.13.11-1.69,0-.09.19-.16.27-.26s.22-.26.22-.4a3.54,3.54,0,0,0-.08-.92c-.08-.35,0-.9.22-.93s.08.31.07.41c0,.69.15,2.83-.09,3.16a6,6,0,0,0-.57,1.51c-.06.13-.24.26-.06.44s0,.15,0,.22c-.06.54-.42,1.12-.19,1.63.07.18.56.1.52.36s-.34,0-.42.13.3.47,0,.59-.18-.39-.34-.33c-1,.36-.86,2.29-.15,3,.27.27.85-.36,1.11-.08s-.44,1.5.15,1.58c.42,0,.31-.61.25-1a3.73,3.73,0,0,0-.41-1.49c0-.06,0-.21.06-.32s.31-.36.21-.57-.67.06-.77-.24c-.17-.49.55-.85.65-1.35.07-.32.28-1.49,0-1.47s-.08.28-.14.37-.12.32-.27.29c-.75-.15.13-.51.62-1,.12-.14,0-.37,0-.53-.18-.51-.22-.92.14-1,.54-.12,0,1.39.51,1.35.38,0,0-1,.4-1,.24,0,.41.2.6.3s.3.37,0,.55c-.56.37-.61.58-.25,1.12.09.14.17.29.26.44s.12.35.27.42c.41.2.16-.8.51-.79.15,0,.16.22.17.3a3.56,3.56,0,0,1,0,1.34c-.08.27.35.75,0,.94s-.3-.45-.85-.59-.49.7-.43,1.13a.25.25,0,0,1,0,.21c-.27.24-.19.51-.13.82.14.67-.11.38-.68.74-.34.21-.15.77,0,1.16s.06.68-.27.67c-.15,0-.22-.21-.35-.23-.3-.05-.57,1.55.08,1.38.2,0-.12-.41,0-.51s.17.12.27.06-.06-.36.11-.4.15.12.17.18c.1.43,0,.7-.3.83,0,0-.13,0-.16.09a.52.52,0,0,0,.06.47.16.16,0,0,0,.11.08c.45.17.52.39.16.71-.18.16-.51.46-.19.6s.43-.57.61-.85,0-1,.41-1c.52.09.18,1,0,1.58-.12.35-.24.65-.69.68-.29,0-.39.25-.38.53s0,.33,0,.49a1.15,1.15,0,0,0,.08.41.33.33,0,0,0,.24,0,.71.71,0,0,0,.12-.39c0-.46,0-.91.46-.68s-.25.72-.31,1.33c0,.17.29.2.29.34,0,.54-.41.08-.95,0-.07,0-.13.08-.19.12-.32.25-.3.45,0,.62.16.09.28.35.5.32s.29-.58.61-.65c.54-.13.15,1.19.62,1.12.08,0,.07-.15.11-.21s0-.28.18-.25c.51.11-.08,1.18.32,1.34.23.08.14-.36.15-.56s0-.67.31-.91c.12-.08.07-.34.2-.46a.33.33,0,0,1,.52.19c0,.16-.11.36-.13.47a2.69,2.69,0,0,0,0,.9,3.28,3.28,0,0,0,.3.7,2,2,0,0,0,.45.76s.39,0,.42.2c.07.57-.47.77-.36,1.24,0,.15.07.35,0,.46a.12.12,0,0,1-.13,0c-.13-.07-.12-.25-.19-.37s-.22-.38-.52-.34c-.12,0-.33-.06-.36-.15s-.11-.42.09-.49.29.48.49.37.12-.75-.07-1a.57.57,0,0,0-.71-.15c-.19.16,0,.52,0,.8a1.3,1.3,0,0,1-.13.36c0,.12-.13.24-.11.36.05.49-.45.41-.7.93-.1.22.16.42.29.56a.63.63,0,0,1,.13.73c-.19.49-.09,1.07.35,1.15.6.11-.19-1.27.28-1.39.12,0,.22.11.23.17A7,7,0,0,1,46.79,57a2.16,2.16,0,0,0,.18.76c.06.26.2.91-.21.81-.65-.15,0-1.61-.45-1.62-.15,0-.32.43-.23.73a3.36,3.36,0,0,1,.2,1,1.28,1.28,0,0,0,.49,1.06c.17.09.36.14.51.24a.47.47,0,0,1,.21.54c-.05.22-.22,0-.4.19-.35.29,0,.86.1,1.25a9.4,9.4,0,0,0,.44,1.15,1,1,0,0,0,.95.71c.19,0,.21-.37.37-.38s.36.62.67.57.18-.36.3-.47.77.07.87.24,0,.18.11.19c.63.11,1-.84,1.45-1.26s1.09-1,1.66-1.53c.79-.65,1.6-1.27,2.41-1.89s1.91-1.56,2.19-1.7c.09,0,.23-.08.26,0,.11.36-2.55,1.8-2.09,2.14.11.09.23-.16.35-.23a10.15,10.15,0,0,0,1.8-1c.14-.12.43-.2.49,0,.12.44-.62.38-.77.78s-.95.6-.69.89c.64.71,1.6-1,2.35-1.54A15,15,0,0,0,63,56.28c.22-.26.52-.91.8-.66s-1.74,1.67-1.42,1.92c.11.09.25-.09.33,0s0,.19,0,.27-.6.13-.48.33c.47.82,2-1.44,2.22-1.17.09.11-.48.62-.72.93s-1.26,1.91-1.6,2.27c0,0-.18.16,0,.24.4.21.61-.53.86-.78A22.69,22.69,0,0,0,64.53,58c.23-.29,1.15-1.11,1.4-.9s-.47.77-.68.91a3,3,0,0,0-.56.45,8.9,8.9,0,0,1-.67.7,2.9,2.9,0,0,0-1.1,1.47c0,.1.13.22.21.16.83-.51,1.5-2,1.91-1.79.14.09.08.26.2.34s.5-.22.82-.1-.6.66-.12.69c.19,0,.31-.47.55-.37s-.09.45-.22.6m-7.34-2.71h0m4,.19c-.11.08-.2.33-.09.41s.94-1,.09-.41m-4-.19s0,0,0,0h0m6.67,1.15c.07,0,.2-.12.18-.21s-.16-.11-.19-.09-.2.13-.17.23a.14.14,0,0,0,.18.07M18.82,58c-.2.66,1.07,1.5,1.62,1.15.09-.06,0-.23-.08-.31-.23-.37-1.4-1.27-1.54-.84m-3.1-.58c-.08.3.55.65.79.46s-.67-.93-.79-.46m11.12,5.63c-.26-.05-.58.28-.49.47s.54.19.68-.05a.3.3,0,0,0-.19-.42M59.32,57.2c-.14-.05-.43.08-.38.22s.36,0,.42-.12a.07.07,0,0,0,0-.1M20.25,65c.07.07.17.2.28.17a.19.19,0,0,0,.1-.2c-.07-.08-.15-.23-.26-.21s-.14.21-.12.24m3-4.49a.54.54,0,0,0-.31-.45c-.14-.07-.45-.19-.51,0s.47.58.74.54a.11.11,0,0,0,.08-.11m-6.14.58a.33.33,0,0,0,.37.21.16.16,0,0,0,.07-.17A.34.34,0,0,0,17.2,61s-.07.08-.05.11m.94.7c0,.05,0,.12-.09.12s-.47-.09-.43-.33.54,0,.52.21" transform="translate(-15.71 -11.66)"/></g></svg>
