<svg width="533" height="75" viewBox="0 0 533 75" fill="none" xmlns="http://www.w3.org/2000/svg">
<path class="svg-line-drawing" d="M4.99877 71.7294C10.3526 69.6128 13.5173 68.7834 17.2968 65.0039C19.0719 63.2289 20.1005 60.8016 22.2929 59.4313C27.3404 56.2767 32.7291 50.9167 36.993 46.6529C42.3545 41.2913 48.3574 37.2962 51.5008 30.2234C56.5541 18.8537 43.821 24.1705 37.8577 24.1705C29.3915 24.1705 21.5867 29.9433 14.5106 33.8744C8.91649 36.9822 5.70187 47.1649 3.0772 52.7058C1.49481 56.0464 0.675232 59.3434 0.675232 63.0823C0.675232 68.3493 5.23616 69.0235 10.3792 69.1353C16.5794 69.2701 21.4117 67.6812 26.6165 64.6196C30.0529 62.5982 32.5329 59.34 36.5606 57.4137C47.5624 52.152 58.4258 46.9286 69.8038 42.3774C81.0157 37.8926 93.3277 35.5142 103.575 28.9264C108.659 25.6584 111.227 21.7545 114.336 16.8685C115.705 14.7179 118.265 6.09711 116.066 3.8979C113.033 0.865608 99.3273 4.3406 95.697 6.15574C87.6598 10.1743 77.8445 18.141 72.446 25.4676C67.1458 32.6606 55.4799 47.0704 60.7724 56.597C67.6585 68.9919 88.7871 56.2231 98.0029 52.2735C112.312 46.1411 125.464 38.5654 138.596 30.2715C143.254 27.3295 158.995 14.3746 145.946 11.392C139.32 9.87753 130.545 13.2798 124.713 16.196C116.366 20.3691 111.02 27.8054 105.497 35.0274C99.1986 43.2638 93.6852 51.4072 94.9284 61.3529C95.2857 64.2116 106.807 64.7704 108.379 64.8118C112.954 64.9321 117.548 64.9835 121.734 62.8902C133.792 56.8612 145.805 52.0601 157.379 45.1156C166.699 39.5237 175.316 32.4574 183.513 25.3234C188.898 20.6362 189.002 17.0174 190.719 11.0077C191.134 9.55509 191.645 -0.410887 188.317 1.01554C180.455 4.38494 172.216 5.99986 164.778 10.5273C151.714 18.4792 136.886 36.0554 136.434 52.3215C136.34 55.7281 134.906 62.383 139.701 62.2176C146.385 61.9871 156.054 62.466 162.376 60.0078C169.818 57.1136 178.648 55.1423 185.29 50.5441C187.786 48.8163 190.513 47.4526 193.073 45.8362C195.047 44.5895 197.075 42.4592 199.126 41.5127C201.938 40.2145 219.36 25.0453 216.372 22.0568C214.46 20.1452 206.729 21.8329 204.746 22.0568C199.908 22.603 193.874 23.1613 189.518 25.4676C181.882 29.51 174.863 33.2818 169.774 40.5519C166.366 45.4193 173.887 45.6306 176.355 45.8362C183.55 46.4358 191.617 46.9629 198.213 43.1941C207.903 37.657 216.013 28.7582 225.163 22.393C233.946 16.2832 241.772 13.3964 251.873 11.1518C254.486 10.5711 257.336 10.3268 259.655 9.0381C261.948 7.76455 268.337 4.28221 262.297 4.28221C253.206 4.28221 244.171 9.77856 237.605 15.5234C228.227 23.7292 219.831 33.3266 212.048 43.0019C209.606 46.0385 190.135 72.0193 198.885 74.1314C204.347 75.4496 213.414 72.3847 218.774 70.8647C224.085 69.3584 229.872 67.5052 234.531 64.4274C244.927 57.5583 250.784 47.1598 259.223 38.4862C264.216 33.3547 267.261 26.5085 272.386 21.3842C274.03 19.7402 276.02 17.291 276.325 14.8509C276.541 13.121 262.849 19.5504 261.721 20.1352C255.816 23.1972 251.182 28.787 247.982 34.547C244.486 40.8386 239.75 45.8862 237.413 52.898C236.043 57.0089 235.011 59.9915 235.011 64.4274C235.011 70.0536 246.551 66.3383 249.711 65.4843C252.961 64.6059 256.188 62.7946 259.223 61.3529C264.926 58.644 270.976 57.044 276.325 53.5705C283.997 48.5884 292.017 44.5083 299.48 39.0627C302.751 36.6756 332.894 16.079 329.937 13.1214C328.673 11.858 322.158 15.1101 320.809 15.5234C316.139 16.9547 312.361 19.6717 308.127 21.9607C300.252 26.2174 292.155 32.7103 285.5 38.5823C279.216 44.127 260.644 65.5649 280.889 63.0343C288.054 62.1386 293.908 60.958 300.729 58.2784C310.24 54.5419 314.954 46.41 322.298 40.1676C325.952 37.0617 331.779 29.4808 332.675 24.5548C333.489 20.0756 337.813 12.7198 330.177 19.8469C317.258 31.9048 309.376 48.1189 309.376 66.1088C309.376 70.9192 320.972 66.5667 322.875 66.0127C332.367 63.2491 341.468 59.3142 348.816 52.5617C356.209 45.7685 364.12 38.5877 370.29 30.6558C373.505 26.5216 371.444 21.6365 370.818 17.2528C370.632 15.9517 370.425 13.503 368.56 13.842C364.191 14.6365 359.522 17.2789 355.205 18.5979C338.178 23.8006 323.211 43.3151 323.211 61.3049C323.211 67.9883 327.178 70 333.155 70C344.865 70 358.635 63.5848 369.329 58.951C383.883 52.644 392.281 43.3448 400.17 30.0313C400.974 28.6753 402.45 18.1733 399.113 19.1744C389.672 22.0068 383.099 27.1034 377.688 35.2195C373.32 41.7718 370.055 49.5504 366.639 56.6451C365.3 59.4251 362.811 64.2301 362.988 67.4059C363.326 73.4926 375.538 70.2163 378.649 69.3274C396.704 64.1688 417.807 58.2907 429.378 42.7137C432.1 39.0501 435.857 32.4193 433.702 27.6293C431.808 23.4215 422.914 28.5743 420.251 29.5509C409.778 33.3909 399.692 45.6027 394.982 55.3C389.056 67.5007 400.93 66.7237 409.874 66.5412C417.535 66.3848 426.296 64.1595 433.125 60.6804C442.153 56.0815 452.614 48.686 459.787 41.5127C462.469 38.831 466.032 34.8063 463.726 30.6558C461.715 27.0361 460.999 26.1752 456.857 28.5421C450.448 32.2042 439.228 42.0944 437.449 48.7666C436.513 52.2761 433.051 64.6731 437.833 67.4059C441.276 69.3731 447.551 68.5346 451.332 68.1745C457.601 67.5775 464.652 65.4299 470.308 62.6019C479.951 57.7802 495.35 47.882 497.017 35.796C498.006 28.6323 501.821 18.5736 497.882 11.6803C495.239 7.05441 482.882 22.0262 481.933 24.6989C478.366 34.7531 478.118 46.4001 479.723 56.8372C480.759 63.5672 485.41 62.2176 491.013 62.2176C502.005 62.2176 513.087 60.3938 519.019 50.1117C523.54 42.2768 527.519 31.0021 528.099 22.0087C528.573 14.6674 525.887 9.20983 519.212 14.995C513.837 19.6532 511.017 29.1244 509.556 35.844C507.928 43.3311 503.651 54.824 510.084 61.2568C515.768 66.9411 525.867 68.3491 532.47 63.947" stroke="black" stroke-linecap="round" stroke-linejoin="round"/>
</svg>
