<?xml version="1.0" encoding="utf-8"?>
<!-- Generator: Adobe Illustrator 25.2.3, SVG Export Plug-In . SVG Version: 6.00 Build 0)  -->
<svg version="1.1" id="Layer_1" xmlns="http://www.w3.org/2000/svg" xmlns:xlink="http://www.w3.org/1999/xlink" x="0px" y="0px"
	 viewBox="0 0 1920 1080" style="enable-background:new 0 0 1920 1080;" xml:space="preserve">
<style type="text/css">
	.st0{fill:none;stroke:#000000;stroke-width:6;stroke-miterlimit:10;}
</style>
<path class="st0" d="M332.4,935c-15.4,30.7-61.3,35-89.6,15.4s-41.5-54.6-47.5-88.4c-8.7-49.6,0.5-110.3,45.1-133.5
	c33.2-17.2,75.3-6.5,104.7,16.5c29.4,23,48.8,56.2,67.2,88.7c10.8,19.1,21.7,39,24,60.8s-6.1,46.4-25.6,56.4
	c-31.9,16.5-68.4-13.1-87.5-43.5c-30.7-49-46.5-107.1-44.9-164.8c1.5-55,27.4-117.9,81.1-130.1c39.9-9,80.2,13.5,111.1,40.3
	c59.7,51.6,102.4,122.5,120.2,199.3c6,25.7,8.3,55.4-8.1,76c-25.5,32-78.6,20.5-109.7-6.2c-58.9-50.6-74.9-135.9-70.1-213.4
	c3.2-51,17.2-107,60.1-134.7c57.1-37,134.7-4.6,184.8,41.4c77.4,71.1,124,174.8,125.7,279.9c0.5,34-7.4,74-38.2,88.4
	c-33.4,15.6-71.8-9-95.9-36.9c-53.5-61.9-78.9-147.3-67.9-228.4c7.3-54,34.9-110.4,85.7-130c61.2-23.6,129.6,15,173.5,63.8
	c61.9,69,97,161.4,96.3,254.1c-0.2,29.7-8.2,65.1-36.1,75.2c-34.5,12.5-66.4-23.5-83.6-56c-42.6-80.6-70.2-169.1-81.2-259.7
	c-5.8-47.6-4.2-102.6,31.6-134.4c25-22.2,62-27.3,94.4-19c32.4,8.3,60.6,28.3,84.8,51.3c75.1,71.5,116.9,176.5,111.4,280.1
	c-2.5,47.2-24.4,103.5-71.4,108.8c-35.3,3.9-65.8-23.8-87.8-51.6c-59.7-75.3-97.9-167.4-109-262.9c-6.2-52.7,1.4-116.2,47.7-142
	c33.8-18.9,76.3-10,112.2,4.7c139,56.8,238.9,198.8,245.4,348.8c2,47.1-10.9,103.3-54.9,120.1c-27.6,10.5-59.8,1.1-82.6-17.6
	s-37.8-45.2-49.8-72.2c-28.6-64.1-43.6-134.2-43.7-204.4c-0.1-53.1,12.1-112.6,56.2-142.1c54.9-36.7,130.6-8.4,181.9,33.2
	c78.1,63.4,131.4,156.8,146.1,256.3c7.3,49.3-2.9,112.1-50.3,127.5c-46.7,15.2-91.7-28.3-114.8-71.6
	c-46.2-86.2-58.1-190.2-32.8-284.7c15.6-58.1,51.7-118,110.3-131.6c67.9-15.7,133,37.3,170.9,95.8c62.6,96.6,84.5,218.8,59.3,331.1
	c-4.3,19.1-11.5,39.9-28.9,48.8c-29,14.7-60.9-13.6-79.1-40.6c-64.4-95.9-96.7-213-90.4-328.4c2.1-38.5,11-81,42.6-102.9
	c39.7-27.5,94.9-8.9,134.5,18.6c109.7,76.1,169.1,218.6,145.9,350.1c-8.6,48.9-39.6,104.4-89.2,103.1c-43.3-1.1-71.9-45.2-87.2-85.8
	c-35.4-93.8-42.8-198-20.9-295.9c13.3-59.4,42.7-122.2,99.5-144.1c58.6-22.6,125.5,7.2,171.6,49.8c102.3,94.4,135.6,255.8,79.2,383
	c-14.5,32.6-38.8,66-74.2,70.4c-45.7,5.7-81-38.6-102.3-79.4c-81.4-156.2-106.5-341-69.7-513.3c4.6-21.6,11.3-44.7,29.2-57.6
	c28.4-20.4,68.8-4.2,95,19c84.1,74.5,95.4,201.5,83.1,313.2c-2.6,23.4-6.1,47.4-17.6,68s-32.4,37.5-56,37.6
	c-35.9,0.2-60.6-35.5-75.5-68.2c-47.8-105.1-64.4-224.2-47.1-338.5c1.5-10.1,4.2-21.5,13.3-26.3c14.1-7.5,29.6,6.9,38.2,20.3
	c50.5,77.8,69.1,175.6,50.7,266.5c-6.7,33.2-23.4,70.4-56.6,77.5c-40.7,8.7-73.4-33-91.4-70.6c-50.2-105.1-75-222.2-71.7-338.6
	c96.5,72.2,140.8,207.3,105.8,322.6c-7.2,23.9-20.3,49.5-44.3,56.6c-38.3,11.3-70.2-30.6-84.9-67.7c-39-98-50.8-206.6-33.9-310.7
	c68.6,88.4,97.4,206.4,77.1,316.4c-5.9,32-19.9,67.7-51,77.2c-41.4,12.7-78.3-29.4-97.5-68.2c-44.6-90.2-64.2-192.6-56.1-292.9
	c1.2-14.4,4.9-31.5,18.4-36.6c13.1-4.9,26.9,4.6,37.1,14.2c84.8,80.1,117.7,210.6,81.1,321.4c-8.7,26.4-26.1,55.3-53.8,57.3
	c-30.8,2.2-52.1-29.5-64.8-57.6c-35.9-79.5-59-164.8-68.1-251.5c22.8-6.1,47.6,4.4,64,21.3c16.4,16.9,25.9,39.3,33.2,61.7
	c18.8,57,26.6,117.7,22.9,177.6c-1.4,22.8-4.7,46.1-15.8,66c-11.2,19.9-31.7,35.9-54.5,36c-36.3,0.2-60.6-36.3-76.1-69.2
	c-42.7-90.7-71.6-187.9-85.3-287.2c-2.2-16-3.7-33.6,5.2-47c11.2-16.9,35.7-20.7,54.6-13.5s33.2,22.9,45.5,39
	c54.3,71.2,83.2,161.4,80.4,250.9c-1.4,43.1-17.3,94.3-59.2,104.5c-23.9,5.8-49.4-4.8-67.3-21.6c-17.9-16.8-29.6-39.1-40.2-61.3
	c-40-83.8-69.9-172.5-88.8-263.5c-3.8-18.2-6.4-39.4,5.8-53.5c11-12.6,30.7-14.3,46.2-8.1c15.5,6.1,27.6,18.5,38.5,31.1
	c64.7,74.4,106,168.8,116.6,266.9c4.4,40.4-0.5,89-35.8,109.1c-26.2,14.9-60.7,7.1-84.4-11.5c-23.7-18.6-38.7-46-51.5-73.2
	c-45.2-95.8-72-200.2-78.7-305.9c-0.8-12.3-0.1-27,10.3-33.5c14.5-9.1,31.9,5.9,41.8,19.9c63.9,90.2,98.9,200.6,98.6,311.2
	c-0.1,32.8-8.9,73-40.4,82.1c-35.8,10.3-65.5-28.2-81.1-62c-57.2-123.8-86.5-260.6-84.9-397c119.1,82.7,191.4,228.7,185.1,373.6
	c-1.2,27.4-7.3,58.4-30.6,72.9c-20,12.4-47.1,7.8-66.5-5.4s-32.7-33.7-44.4-54.1C873.1,453.5,842.8,328.1,848,204
	c145.4,94.9,208.3,298.2,142,458.6c-36.3-2.6-69.1-24.7-92-53s-37.2-62.5-49.7-96.7c-32.1-87.6-54.8-178.7-67.4-271.2
	c-1.7-12.7-2.9-26.9,4.9-37.1c17-22.1,52.1-2.7,70.4,18.4c80.7,93,128.2,214.1,132.3,337.1c1.2,37-8.1,83.1-43.8,92.7
	c-36.2,9.7-67.4-26.3-85.9-59c-62.6-110.6-101.6-234.4-113.6-360.9c-1.5-15.6-1.3-34,11.2-43.3c17.6-13.1,41.8,2.9,56.7,19.1
	c85,92.7,131.3,219.8,125.9,345.4c-1,24.3-5.2,51.1-23.7,66.9c-21,17.9-54.1,14.8-77.1-0.4c-23-15.2-37.9-39.8-50.6-64.3
	c-49.5-95.3-76.9-202-79.6-309.3c-0.3-10.9,0-22.8,6.9-31.4c16.1-19.9,48.2-3.8,66.2,14.5c84.7,85.8,132.9,206.6,130.5,327.1
	c-0.7,33.7-8.9,72.8-39.2,87.3c-21.3,10.2-47.7,4.2-66.8-9.7c-19.1-13.9-32.2-34.4-43.5-55.2c-47.7-87.4-71.7-187.7-68.6-287.2
	c0.8-25.4,8.7-57,33.7-61.5c22.5-4,40.7,17.8,52,37.7c51.4,90.2,77,195,72.8,298.8c-1.4,34.3-12.1,75.9-45.4,84.2
	c-36.8,9.2-66.5-29.8-82.8-64.1c-47.2-99.7-78.1-207.1-91.2-316.6c-0.9-7.9-1.7-16.4,2-23.4c5.9-11.1,21.4-14.1,33.3-9.7
	c11.8,4.4,20.7,14.2,28.6,24c67.4,82.9,106,188.7,107.7,295.5c0.6,35.2-8.4,78.2-41.9,89.1c-37.8,12.3-71.9-26.2-90.9-61.1
	c-56.5-103.6-89.4-219.9-95.5-337.7c-1-18.3-0.1-39.4,14.1-51.1c22.8-18.6,56,2.8,75.6,24.6c82.9,92.6,133.7,213.4,141.7,337.5
	c2.8,42.8-8,97.2-49.8,106.8c-40.5,9.4-73.7-31.7-93-68.5C606.9,487.3,570,366.7,556.2,243.5c-1.2-11.1-1.7-24,6.5-31.6
	c14-12.9,35.9,1.9,48.1,16.6c80,96.2,126.8,219.5,130.7,344.5c1.1,34.9-7.1,78.2-40.5,88.3c-36.1,10.8-67.4-26.4-85.5-59.5
	c-60.2-110.3-102.9-230.2-125.9-353.8c-2.6-13.8-4.3-29.9,5.3-40.1c16-17.1,44.2-1.8,60.7,14.7c87.2,87.2,139.8,208.2,144,331.5
	c0.8,24.5-0.3,49.9-10.5,72.2s-31.2,41.1-55.7,42.5c-39.7,2.2-67.2-38.2-83.5-74.5c-44.5-98.7-70.6-205.7-76.4-313.8
	c-1-19.3,0.7-42.6,17.6-51.9c20-10.9,43.4,6.5,58.4,23.7c78.3,89.7,122.8,208.1,123,327.1c0.1,36.5-11.1,81.8-46.8,89.4
	c-35.2,7.5-63.6-27.7-80.9-59.2C486.7,503.9,446,388.9,424.5,270.4c-1.8-9.9-3.3-20.9,2.1-29.4c12.7-20.2,44-5.9,60.8,11.1
	c77,78.2,122.6,186.6,124.6,296.4c0.7,40.2-13.1,90.7-52.9,96.7c-36.5,5.5-64.3-31.2-81.2-64c-54.5-106-90.1-221.8-104.6-340.1
	c-1.2-10.2-2-21.6,4.2-29.8c14.5-19,44.4-0.7,58.9,18.3c58.9,76.7,97.1,169.1,109.5,265c5.7,43.8-1.8,100.1-43.9,113.5
	c-22.2,7-47-1.8-64.5-17.2s-28.9-36.3-39.1-57.2c-30-61.5-52.5-126.7-66.9-193.6c-4.2-19.7-5.9-44.4,10.6-56
	c22.1-15.4,50.3,8.2,65.2,30.6c49.5,74.8,78.8,162.8,83.8,252.3c1.6,28.2-2.3,62-27.2,75.3c-33.4,17.9-70.6-15.8-91.9-47.2
	c-49.1-72.1-88.8-150.6-117.7-232.9c-6.5-18.5-11.9-40.7,0-56.3c9.9-12.9,29.1-15.7,44.6-10.5c15.4,5.2,27.8,16.8,38.9,28.7
	c54,58.7,87.7,135.7,94,215.2c3.1,38.3-7.6,86.8-45.1,95.4c-29.8,6.9-57.5-16.5-77.3-39.8c-59.9-70.5-100.5-157.2-116.1-248.4
	c-2.3-13.7-3.7-29.2,5-40c17.1-21.3,51.4-4.3,70.4,15.2c70.8,72.5,112.5,172.6,114.2,274c0.4,24.9-4.1,54.2-26.1,65.9
	c-31.5,16.8-66.1-15.9-85-46.2c-50.8-81.3-86.6-172-104.9-266.1c-1.9-9.5-3.4-19.9,0.9-28.6c6.5-12.8,24.2-16.5,37.7-11.5
	c13.5,5,23.6,16.2,32.5,27.5c59.6,74.8,95.4,168.3,101,263.8c2.3,38.7-7.1,86.8-44.2,97.7c-35.2,10.3-68.2-21-89.3-51
	c-52.3-74.2-88.2-159.9-104.5-249.2c-4.1-22.6-4.2-51.3,16.2-62c20.8-11,45,6.6,60.7,24.2c55.6,62.5,91.8,142,102.6,225
	c1.7,13.3,2.6,27.8-4.5,39.2c-12.1,19.5-42.4,19.7-61,6.3s-28.2-35.9-36.3-57.3c-8.2-21.5-16.5-44.1-33.7-59.3"/>
</svg>
