<svg
  xmlns="http://www.w3.org/2000/svg"
  xmlns:xlink="http://www.w3.org/1999/xlink"
  viewBox="0 0 188.08 188.21"
>
  <defs>
    <style>
      .cls-1 {
        fill: none;
      }
      .cls-2 {
        clip-path: url(#clip-path);
      }
      .cls-3 {
        fill: currentColor;
      }
    </style>
    <clipPath id="clip-path" transform="translate(0 0)">
      <rect class="cls-1" width="188.08" height="188.21" />
    </clipPath>
  </defs>
  <g id="Layer_2" data-name="Layer 2">
    <g id="Layer_1-2" data-name="Layer 1">
      <g class="cls-2">
        <path
          class="cls-3"
          d="M91.86,137.7c-4,3.05-7.85,6.23-12,9.05-3.84,2.62-8,5.18-12.69,6-3.25.54-4.65-1-5.16-4-.6-3.55.11-7.42.5-11a102.9,102.9,0,0,0,.13-14.9c-.23-6.46-.07-13.09-.76-19.51-.17-1.6-.46-3.3-.71-5a1.08,1.08,0,0,0,.27-.6c.14-1.13-.11-2.23,0-3.35A1.51,1.51,0,0,0,60.74,93v-.18a1.57,1.57,0,0,0,.68-1.37c-.07-1.15.18-2.28,0-3.43a1.12,1.12,0,0,0-.24-.59c.24-1.61.51-3.2.68-4.7.69-6.28.53-12.75.76-19.07a98.26,98.26,0,0,0-.13-14.56c-.39-3.47-1.1-7.24-.5-10.72.51-2.94,1.91-4.42,5.16-3.88,4.65.76,8.85,3.25,12.69,5.81,4.13,2.77,8,5.87,12,8.86,4.73,3.57,9.87,6.58,14.92,9.7,10.39,6.43,20.92,12.63,31.43,18.87,4.33,2.58,8.69,5.17,12.75,8.16,2.7,2,5.67,4.16,7.54,7-1.87,2.91-4.84,5.13-7.54,7.17-4.06,3.06-8.42,5.71-12.75,8.34m26-17.39C162,86.5,157.11,83.17,153,80.3c-5-3.45-10.2-6.51-15.42-9.58C131,66.88,124.49,63.05,118,59.12c-6.74-4.08-13.88-7.93-20.24-12.56-7.85-5.71-15.39-12.59-24.7-16-3.67-1.33-8.49-2.41-12.06-.2-3.11,1.92-4.14,5.38-4.35,8.79a63.15,63.15,0,0,0,.82,11.06,108.9,108.9,0,0,1,.24,15.33c-.13,6.15,0,12.35-.38,18.49A76.76,76.76,0,0,0,57,93a80.18,80.18,0,0,0,.34,9.11c.36,6.29.25,12.62.38,18.92a113.93,113.93,0,0,1-.24,15.68A66.13,66.13,0,0,0,56.66,148c.21,3.48,1.24,7,4.35,9,3.57,2.26,8.39,1.16,12.06-.21,9.31-3.47,16.85-10.51,24.7-16.36,6.36-4.73,13.5-8.67,20.24-12.85,6.48-4,13-7.93,19.55-11.87,5.22-3.14,10.45-6.26,15.42-9.79,4.13-2.94,9-6.35,11.28-11a3.1,3.1,0,0,0,.3-1.92,3,3,0,0,0-.3-1.88"
          transform="translate(0 0)"
        />
        <path
          class="cls-3"
          d="M136,169.8a88.12,88.12,0,0,1-51.57,12.6C64.16,181,44.94,171.5,30.62,157.24a88.16,88.16,0,0,1-25.4-56.07A101.61,101.61,0,0,1,9.33,65.65a1.82,1.82,0,0,0,1.33-1.07c2.7-5.47,4.7-11.23,7.19-16.79a86.92,86.92,0,0,1,7-12.75,62.68,62.68,0,0,1,18.7-18.28C59.58,6.57,78.94,4.82,97.45,6.23c19.48,1.47,38.85,10,54.19,21.91a85.9,85.9,0,0,1,20.2,21.76c5.25,8.29,8.12,17.55,9.65,27.19C187.36,114,167.42,150.87,136,169.8m36.37-129C148,9.1,103.76-6.31,64.94,2.42A70,70,0,0,0,22.71,30.35C8.08,48.28.2,72.65,0,95.41A93.16,93.16,0,0,0,20.38,154a92.12,92.12,0,0,0,52.18,32.3c36.83,8,74.38-9.53,96.37-39.17,22.39-30.18,27.18-75.48,3.44-106.34"
          transform="translate(0 0)"
        />
      </g>
    </g>
  </g>
</svg>
