<?xml version="1.0" encoding="utf-8"?>
<!-- Generator: Adobe Adobe Illustrator 24.2.0, SVG Export Plug-In . SVG Version: 6.00 Build 0)  -->
<svg version="1.1" id="Layer_1" xmlns="http://www.w3.org/2000/svg" xmlns:xlink="http://www.w3.org/1999/xlink" x="0px" y="0px"
	 viewBox="0 0 1920 1080" style="enable-background:new 0 0 1920 1080;" xml:space="preserve">
<style type="text/css">
	.st0{fill:#FFFFFF;stroke:#000000;stroke-miterlimit:10;}
	.st1{fill:none;stroke:#000000;stroke-miterlimit:10;}
</style>
<path class="st0" d="M20.07-668.91"/>
<path class="st1" d="M93.31,814.63c-14.63,1.04-21.73,21.6-13.58,33.79c8.15,12.19,25.51,15.35,39.54,11.06
	c14.03-4.29,25.42-14.41,36-24.57c117.04-112.35,316.99-380.67,254.57-410.77c-35.09-16.93-185.86,251.21-209.69,403.68
	c-5.95,38.06-0.55,89,36.93,97.9c23.97,5.69,47.2-10.6,65.79-26.77c171.14-148.92,354.06-587.4,273.92-600.6
	c-48.18-7.94-242.81,341.79-306.26,540.44c-9.71,30.42-16.48,68.81,7.46,89.94c29.41,25.96,75.02,1.73,104.42-24.24
	C546.78,759.25,717.89,347.1,683.84,335.5c-34.8-11.86-136.94,170.45-205.41,255.68c-60.07,74.77-121.11,151.22-154.65,241.07
	c-11.53,30.88-16.5,72.37,10.87,90.73c25.59,17.16,59.81,0.7,84.96-17.1C571.39,798.48,682.82,635.42,727.72,455
	c4.33-17.38,2.79-42.84-15.03-44.57c-10.06-0.98-18.36,7.34-24.96,15c-108.04,125.23-205.2,259.84-290.04,401.81
	c-11.39,19.06-22.82,39.04-24.9,61.15c-2.08,22.1,7.89,46.95,28.54,55.12c21.71,8.59,45.72-3.44,65.42-15.98
	c162.14-103.3,283.23-269.23,332.14-455.15c7.22-27.44,5.58-67.12-22.41-71.77c-17.98-2.98-33.29,12.34-44.9,26.39
	C628.37,551.96,538.15,687.65,462.85,831.17c-15.14,28.85-25.54,72.48,3.52,87.22c19.94,10.12,43.44-3.09,61.28-16.59
	c165.04-124.87,275.63-319.3,298.59-524.98c1.8-16.16-3.03-39.09-19.23-37.78c-8.63,0.7-14.51,8.76-19.17,16.06
	C689.05,509.7,590.26,664.31,491.48,818.91c-18.36,28.74-35.5,70.09-10.36,93.13c23.47,21.5,60.96,5.03,86.9-13.42
	c126.65-90.11,227.91-215.51,289.35-358.28c24.39-56.68,41.54-125.68,7.62-177.23c-82.1,133.48-164.2,266.96-246.3,400.44
	c-26.57,43.2-54.22,91.54-45.49,141.49c179.22-115.12,309.17-304.38,352.22-513c3.46-16.79,3.38-39.36-12.74-45.18
	c-15.36-5.55-29.61,9.93-38.6,23.56C775.65,519.6,685.46,674.21,604.08,833.33c-13.73,26.84-23.64,66.8,2.89,81.12
	c17.16,9.26,38.12-0.24,54.78-10.37c163.41-99.34,278.37-274.71,304.28-464.19C844.96,562.79,742.51,704,663.25,857.24
	c-5.82,11.24-11.26,25.77-3.31,35.62c10.31,12.78,30.79,4.35,44.11-5.25c139.99-100.9,244.8-249.66,292.7-415.44
	c2.46-8.5,4.48-18.6-1.14-25.43c-10.58-12.88-30.66,0.83-40.89,13.98c-108.72,139.63-221.28,288-246.1,463.22
	c178.46-92.49,311.21-268.72,350.86-465.77c3.69-18.36,1.61-44.31-16.93-46.89c-11.61-1.62-21.4,8.1-28.95,17.07
	C898.8,564.75,815.01,727.09,770.33,899.68c183.08-85.92,505.81-411.22,316.33-481.93C918.6,355.04,875.62,708.58,796.34,869.49
	c-5.05,10.25-9.45,24.13-0.97,31.79c8.04,7.27,20.76,2.51,30.21-2.81c166.55-93.75,313.24-456.03,292.68-465.72
	c-63.66-30-203.27,241.39-242.77,392.44c-4.39,16.77-7.06,37.57,6.15,48.79c16.01,13.61,40.3,1.5,56.85-11.46
	c115.38-90.39,198.28-221.41,230.55-364.39c5.44-24.12,3.45-58.12-20.85-62.73c-17.49-3.32-32.15,12.59-42.68,26.95
	c-80.88,110.23-152.49,227.27-213.82,349.46c-10.47,20.85-18.78,50.39,0.18,63.97c18.75,13.42,43.79-3.39,60.46-19.32
	c63.54-60.74,127.59-122.08,176.95-194.8s161.17-212.3,80.21-246.54c-51.6-21.83-191.54,291.1-269.25,446.89
	c-9.34,18.71-18.23,42.2-6.08,59.23c17.45,24.45,55.93,9.55,79.99-8.45c161.15-120.56,278.12-298.91,324.49-494.76
	c5.57-23.53,1.68-58.57-22.5-58.38c-12.51,0.1-21.88,11.05-29.37,21.07c-105.46,140.98-201.07,289.33-285.91,443.6
	c-16.17,29.41-29.56,71.78-2.56,91.72c22.43,16.57,53.95,2.12,76.98-13.6c194.36-132.68,400.55-564.06,346.62-589
	c-86.57-40.03-232.26,370.91-348.39,556.36c-13.12,20.96-25.99,49.31-10.28,68.4c17.61,21.4,52.11,9.17,75.5-5.7
	c129.54-82.34,235.84-200.81,303.71-338.49c40.26-81.68,66-182.73,19.56-261.07c-129.94,174.12-251.17,354.74-363.07,540.96
	c-14.45,24.04-27.96,57.3-8.44,77.45c19.12,19.73,52.22,8.22,76.02-5.5c241.02-138.91,518.75-657.35,436.88-674.64
	c-38.26-8.08-67.33,36.15-89.46,68.39c-103.49,150.69-206.97,301.38-310.46,452.07c-16.95,24.68-34.35,50.45-39.06,80.02
	c-4.71,29.57,7.22,64.07,34.83,75.66c26.71,11.21,56.98-1.96,82.13-16.33c218.91-125.14,365.91-367.59,375.65-619.55
	c-134.98,189.09-269.97,378.18-404.95,567.27c-10.08,14.13-20.29,33.5-10.01,47.48c11.87,16.14,37.28,7.72,54.42-2.65
	c208.85-126.45,361.8-341.81,412.4-580.65c4.97-23.44,1.38-57.49-22.55-58.58c-13.56-0.62-24.05,11.22-32.29,22.01
	c-125.55,164.38-240.92,336.52-345.25,515.12c-13.81,23.65-27.7,48.15-31.59,75.26c-3.9,27.11,4.42,57.76,27.19,72.96
	c34.01,22.71,79.56,2.03,113.34-21.03c196.43-134.05,332.47-353.31,365.35-588.84c2.31-16.54-0.86-39.66-17.53-40.75
	c-10.54-0.69-18.54,8.91-24.63,17.54c-129.44,183.42-258.87,366.84-388.31,550.26c-12.63,17.9-24.99,43.61-10.01,59.61
	c14.28,15.25,39.59,6.4,57.69-4.03c214.39-123.53,367.57-348.11,404.33-592.79c3.17-21.09,1.86-48.69-18.21-55.9
	c-18.44-6.63-36.33,10.18-48.67,25.4c-128.71,158.65-246,326.57-350.65,502.02c-19.2,32.18-38.23,72.5-19.85,105.16
	c15.56,27.66,53.3,36.29,83.83,27.62c30.53-8.67,55.31-30.59,78.16-52.62c142.5-137.38,259.98-322.25,245.22-519.64
	c-1.6-21.34-16.41-49.74-35.83-40.76c-6.15,2.84-10.03,8.93-13.57,14.7c-99,161.41-198.01,322.83-297.01,484.24
	c-11.85,19.32-23.27,45.74-8.16,62.62c16.26,18.16,46.1,6.67,66.45-6.74c171.76-113.17,297.03-294.79,341.78-495.56
	c7.22-32.41,3.4-78.63-29.53-82.91c-21.19-2.76-38.55,15.75-51.61,32.67c-109.63,142-202.7,296.78-276.73,460.19
	c-8.04,17.74-15.98,36.12-16.68,55.58s7.45,40.48,24.64,49.62c25.3,13.46,55.68-3.39,78.44-20.8
	c166.77-127.59,282.57-319.99,317.24-527.09c3.11-18.58,0.99-44.19-17.55-47.56c-14.26-2.59-25.67,11.15-33.61,23.27
	c-107.97,165.04-215.95,330.08-323.92,495.12c-12.84,19.63-24.7,48.48-6.86,63.72c15.12,12.92,38.24,3.44,55.09-7.12
	c131.88-82.67,233.91-211.92,283.71-359.39c9.21-27.27,10.13-67.47-17.86-74.2c-18.18-4.37-34.95,10.27-47.73,23.92
	c-89.56,95.68-167.8,201.96-232.54,315.91c-16.32,28.72-31.11,67-9.8,92.23c25.43,30.11,74.55,11.23,106.03-12.49
	c93.41-70.36,165.83-168.24,205.82-278.14c6.48-17.8,8.35-43.94-9.73-49.57c-11.66-3.63-23.32,4.91-32.38,13.09
	c-101.11,91.3-177.68,209.53-219.65,339.13c116.4-30.37,213.22-126.52,244.41-242.7c-114.4,53.18-200.38,163.62-223.9,287.56
	c97.04-41.24,177.99-119.1,222.97-214.46c6.67-14.14,12.26-31.93,2.87-44.43c-14.74-19.64-45.95-4.73-63.5,12.45
	c-47,46.01-83.63,102.56-106.41,164.27c-4.99,13.51-8.57,30.66,1.77,40.67c12.14,11.75,32.33,3.62,46.23-6
	c73.98-51.2,125.92-133.21,140.58-221.98c-87.4,45.68-153.43,130.42-176.37,226.34c68.92-41.73,127.02-101.15,167.21-170.98
	c-60.2,49.85-111.83,110.04-151.95,177.12c27.5-9.96,55-19.92,82.5-29.89"/>
</svg>
