<?xml version="1.0" encoding="utf-8"?>
<!-- Generator: Adobe Adobe Illustrator 24.2.0, SVG Export Plug-In . SVG Version: 6.00 Build 0)  -->
<svg version="1.1" id="Layer_1" xmlns="http://www.w3.org/2000/svg" xmlns:xlink="http://www.w3.org/1999/xlink" x="0px" y="0px"
	 viewBox="0 0 1920 1080" style="enable-background:new 0 0 1920 1080;" xml:space="preserve">
<style type="text/css">
	.st0{fill:#FFFFFF;stroke:#000000;stroke-miterlimit:10;}
	.st1{fill:none;stroke:#000000;stroke-miterlimit:10;}
</style>
<path class="st0" d="M20.07-668.91"/>
<path class="st1" d="M50.46,968.43c2.54,14.05,5.09,28.09,7.63,42.14c198.75-66.82,414.12-460.47,348.59-476.24
	c-54.15-13.03-199.75,213.12-281.58,334.54c-19.39,28.77-39.39,65.35-23.19,96.02c20.6,38.97,78.32,32.05,119.11,15.35
	c164.73-67.48,299.03-205.8,361.62-372.45c5.25-13.99,9.05-32.18-2.35-41.85c-13.76-11.67-34.22,0.81-47.51,13.02
	C415.27,686.91,304.39,802.12,201.01,923.7c-14.56,17.12-29.74,40.64-18.75,60.24c12.57,22.42,46.01,17.36,69.82,7.68
	c157.31-63.94,283.96-199.28,337.35-360.48c6.49-19.59,11.98-40.59,7.12-60.65c-4.86-20.05-23.46-38.19-43.92-35.53
	c-13.76,1.79-24.72,11.99-34.5,21.83C414.84,660.68,328.54,781.41,263.69,912.77c-18.39,37.25-31.95,89.42,1.24,114.39
	c25.99,19.55,63.08,7.39,92.04-7.42c167.78-85.79,298.05-242.12,352.17-422.63c7.21-24.04,8.76-57.63-14.74-66.45
	c-20.6-7.73-40.6,11.73-53.9,29.26C553.7,674.21,474.4,794.19,403.25,918.83c-18.1,31.71-32.26,79.24-1.27,98.54
	c21.62,13.47,49.67,1.2,71.26-12.31C613.19,917.51,717.5,774.7,758.35,614.76c6.06-23.72,4.77-57.64-19.27-62.28
	c-15.88-3.07-29.76,10.25-40.4,22.43C598.66,689.46,503.32,808.1,412.98,930.43c-15.18,20.55-30.62,48.36-16.69,69.78
	c15.72,24.19,52.69,16.61,78.96,4.68c172.7-78.5,312.12-227.42,379.08-404.91c6.66-17.67,12.73-36.47,9.78-55.12
	c-2.95-18.65-17.75-36.75-36.63-37.08c-17.98-0.31-32.21,14.44-43.81,28.19C682.05,656.4,594.32,788.54,522.77,928.93
	c-15.21,29.83-28.15,70.23-3.82,93.23c22.51,21.28,59.28,10.09,86.69-4.34c156.83-82.55,274.14-236.68,311.94-409.84
	c4.24-19.42,7.47-40,1.28-58.89s-24.68-35.16-44.35-32.29c-16.39,2.39-28.21,16.45-38.28,29.6
	c-90.04,117.49-171.58,241.5-243.76,370.73c-13.15,23.54-25.65,54.16-9.27,75.57c11.23,14.67,32.65,18.24,50.48,13.41
	s32.95-16.4,47.54-27.74c83.61-65.01,167.89-132.25,227.75-219.62s132.13-293.09,62.89-300.85
	c-138.1-15.48-231.54,316.97-326.44,488.57c-13.38,24.2-25.63,56.9-6.58,76.94c18.2,19.14,50.05,10.45,73.82-1.07
	c153.74-74.51,273.48-216.12,321.41-380.11c8.06-27.56,6.34-68.2-22.1-72.17c-16.89-2.36-31.26,11.5-42.56,24.27
	c-87.9,99.35-170.07,203.78-245.94,312.6c-18.45,26.46-34.8,67.08-9.15,86.63c16.23,12.37,39.41,6.74,58.51-0.44
	c165.53-62.17,298.92-204.27,350.51-373.4c6.34-20.77,11.54-42.76,7.27-64.06c-4.27-21.3-20.43-41.61-42.01-44.14
	c-22.77-2.67-42.8,14.07-59.21,30.08c-95.04,92.76-176.42,199.49-240.7,315.7c-23.47,42.44-43.26,99.49-10.72,135.46
	c19.58,21.64,52.7,26.55,81.02,19.5c28.32-7.05,52.98-24.07,76.67-41.12c71.51-51.45,141.87-107.38,191.33-180.28
	s75.88-165.87,51.89-250.63C1054.75,654.83,947.3,787.46,861,932.67c-12.25,20.6-23.27,49.29-6.25,66.17
	c14.77,14.66,39.52,8.44,58.66,0.28c157.82-67.24,284.25-204.54,338.27-367.36c5.78-17.42,10.82-35.82,7.89-53.94
	c-2.93-18.12-15.94-35.83-34.09-38.57c-20.11-3.03-37.96,12.14-52.37,26.49c-98.16,97.77-183.61,208.29-253.52,327.91
	c-14.63,25.03-28.06,58.56-9.44,80.79c19.53,23.32,57.09,13.8,84.27,0.17c147.69-74.07,259.55-216.06,297.01-376.98
	c4.02-17.25,7.19-35.5,2.1-52.47s-20.91-31.96-38.54-30.32c-14.77,1.38-26.07,13.27-35.76,24.5
	c-94.92,110.07-175.57,232.42-239.32,363.03c-12.45,25.52-23.47,58.52-4.92,80.02c12.55,14.54,34.84,17.22,53.2,11.56
	c18.36-5.66,33.73-18.09,48.6-30.24c70.76-57.83,142.25-116.51,196.7-189.9c54.45-73.39,168.1-225.17,81.76-255.13
	c-148.1-51.41-205.43,237.51-286.86,371.47c-14.12,23.24-25.77,58.01-3.47,73.57c14.67,10.24,34.77,4.07,51.15-3.15
	c131.99-58.18,241.38-166,301.47-297.13c9.06-19.76,17.17-40.79,16.3-62.51s-12.87-44.32-33.37-51.55
	c-29.15-10.28-58.68,12.93-79.97,35.34c-89.14,93.83-159.6,205.33-206.08,326.12c-12.2,31.7-18.61,75.92,11.16,92.26
	c18.38,10.09,41.18,2.98,60.35-5.51c181.45-80.37,477.49-413.62,289.86-478.25c-150.41-51.81-198.03,249.67-274.34,389.25
	c-13.59,24.86-25.46,59.09-4.82,78.5c18.14,17.07,47.6,8.67,70.02-2.18c121.61-58.84,220.62-163.04,273.15-287.51
	c8.93-21.16,16.68-43.57,15.66-66.52c-1.02-22.95-12.53-46.68-33.31-56.47c-30.36-14.3-65.43,5.15-91.82,25.89
	c-85.41,67.15-153.41,156.27-195.62,256.38c-14.4,34.16-22.4,81.13,8.28,101.93c24.69,16.74,58.16,4.26,84.01-10.62
	c132.1-76.04,229.57-209.82,261.46-358.86c5.06-23.65,1.66-57.4-22.39-59.87c-15.12-1.56-27.21,11.72-36.51,23.74
	c-94.91,122.57-188.94,245.82-282.08,369.74c-16.62,22.11-32.98,54.56-13.98,74.67c15.66,16.58,43.08,10.14,64.06,1.2
	c157.46-67.13,279.5-212.01,318.89-378.59c3.88-16.42,7-33.67,2.87-50.02s-17.39-31.54-34.22-32.71
	c-17.93-1.25-32.9,12.74-45.22,25.82c-89.36,94.91-171.35,196.75-244.99,304.3c-15.92,23.25-32.02,52.53-20,78.01
	c9.37,19.87,33.62,29.18,55.53,27.5s42.06-12.15,61.32-22.72c80.27-44.06,158.78-95.03,216.88-165.81
	c58.1-70.78,164.77-225.04,78.09-254.57c-155.76-53.08-225,241.59-305.71,385c-8.06,14.32-15.8,32.64-6.48,46.18
	c11.04,16.05,35.66,11.41,53.68,4.02c138.64-56.85,251.13-174.34,301.9-315.31c8.34-23.15,9.94-57.24-13.72-64.01
	c-15.43-4.41-30.42,7.32-41.99,18.44c-85.45,82.1-158.45,177.15-215.73,280.89c-13.31,24.1-24.62,57.27-4.76,76.33
	c22.35,21.45,58.72,2.35,82.99-16.9c68.22-54.1,137.12-108.88,190.87-177.39s168.55-206.47,88.24-240.09
	c-156.21-65.39-237.86,241.83-335,380.54c-13.92,19.88-27.28,48.11-11.18,66.28c16.74,18.89,47.54,7.34,69.36-5.35
	c72.9-42.41,146.98-85.75,204.16-147.76c57.17-62,156.55-188.46,83.15-230c-119.07-67.39-229.82,158.17-277.86,286.27
	c-6.4,17.07-10.93,38.81,2.18,51.48c13.68,13.23,36.26,6.84,53.52-1.17c109.85-50.99,203.15-136.93,262.97-242.23
	c12.82-22.56,23.58-52.61,7.09-72.65c-20.62-25.06-61.08-9.91-87.79,8.51c-84.69,58.42-157.67,133.73-213.4,220.21
	c-10.98,17.04-21.52,35.09-24.5,55.14s3.18,42.68,19.91,54.13c22.38,15.32,52.85,5.63,77.23-6.25
	c114.69-55.92,208.9-152.77,261.63-268.96c9.2-20.27,13.96-50.18-6.23-59.55c-14.87-6.91-31.6,3.88-44.16,14.43
	c-115.85,97.3-206.71,224.11-261.57,365.1c153.91-52.68,281.92-176.29,339.97-328.26c9.01-23.59,13.56-56.11-8.21-68.9
	c-19.16-11.25-42.94,2.66-60.06,16.82c-85.18,70.42-153.89,160.64-199.14,261.47c-11.78,26.24-19.24,63.02,4.8,78.82
	c19.01,12.49,44.32,1.88,63.63-10.14c92.69-57.69,165.18-147.17,202.39-249.8"/>
</svg>
