<?xml version="1.0" encoding="utf-8"?>
<!-- Generator: Adobe Adobe Illustrator 24.2.0, SVG Export Plug-In . SVG Version: 6.00 Build 0)  -->
<svg version="1.1" id="Layer_1" xmlns="http://www.w3.org/2000/svg" xmlns:xlink="http://www.w3.org/1999/xlink" x="0px" y="0px"
	 viewBox="0 0 1920 1080" style="enable-background:new 0 0 1920 1080;" xml:space="preserve">
<style type="text/css">
	.st0{fill:#FFFFFF;stroke:#000000;stroke-miterlimit:10;}
	.st1{fill:none;stroke:#000000;stroke-miterlimit:10;}
</style>
<path class="st0" d="M20.07-668.91"/>
<path class="st1" d="M75.96,903.78c-2.71,25.52,26.75,45.15,52.19,41.81c25.44-3.34,45.98-21.95,63.28-40.9
	c43.42-47.57,77.94-103.23,101.26-163.27c7.95-20.47,13.45-46.74-2.44-61.9c-22.57-21.53-59.25,3.03-76,29.34
	c-35.37,55.57-48.4,124.92-35.61,189.54c5.38,27.16,18.5,56.82,44.99,64.88c27.61,8.39,55.64-10.6,76.72-30.31
	c87.95-82.25,143.94-197.84,153.97-317.84C340.41,674.6,266.95,804.06,274.34,932.35c1.02,17.64,5.64,38.3,21.94,45.13
	c16.68,6.99,34.93-4.86,48.54-16.78c84.44-73.89,143.23-176.55,164.22-286.77c3.5-18.38,4.64-40.64-9.94-52.36
	c-18.82-15.13-46.43-0.29-64.51,15.72c-71.67,63.41-123.43,149.01-146.31,241.93c-7.71,31.32-10.52,68.95,12.65,91.39
	c28.91,28,77.65,13.4,110.84-9.37c84.02-57.65,135.92-159.32,133.32-261.18c-0.86-33.59-18.8-76.38-52.15-72.25
	c-18.5,2.29-31.42,18.94-41.68,34.51c-43.31,65.74-78.2,137.02-103.53,211.56c-9.77,28.76-16.53,64.83,5.32,85.93
	c25.14,24.26,67.13,9.2,95.85-10.68c91.74-63.52,155.2-166.42,170.79-276.91c3.45-24.49-3.35-58.65-28.08-58.76
	c-13.19-0.05-23.57,10.77-31.94,20.96c-57.68,70.29-102.52,151.08-131.64,237.22c-10.8,31.95-15.3,75.51,14.33,91.65
	c24.04,13.09,53.39-2.51,74.7-19.68c68.39-55.12,118.92-132.06,142.32-216.72c6.96-25.16,7.38-59.46-16.8-69.29
	c-22.03-8.96-44.58,10.92-59.16,29.71c-52.36,67.5-90.66,145.86-111.76,228.64c-6.28,24.64-8.71,55.99,12.27,70.36
	c22.55,15.43,52.8-1.58,73.14-19.82c76.44-68.57,129.68-162.55,149.21-263.36c3.53-18.22,2.23-42.92-15.64-47.94
	c-13.32-3.74-26,7-35.38,17.17c-66,71.65-114.31,159.48-139.47,253.59c-4.92,18.4-6.78,42.51,9.71,52.03
	c13.8,7.97,31.1-0.26,44.28-9.21c84.46-57.32,143.36-150.93,158.49-251.88c5.09-33.94-3.72-79.95-37.85-83.52
	c-23.82-2.49-42.78,18.84-56.27,38.64c-49.86,73.23-87.01,155.09-109.29,240.83c-7.19,27.68-10.22,62.97,13.36,79.16
	c19.77,13.58,46.82,5.05,68.05-6.12c138.21-72.66,240.09-393.43,165.62-398.79c-63.9-4.6-152.24,187.26-183.11,302.71
	c-4.79,17.92-7.86,39.65,5.29,52.74c16.24,16.15,43.75,6.83,63.39-4.97c80.15-48.13,143.31-123.94,176.19-211.46
	c6.95-18.51,12.66-38.15,10.52-57.8s-13.73-39.36-32.36-46c-34.65-12.35-66.67,23.6-83.33,56.4
	c-32.17,63.38-52.22,132.89-58.75,203.67c-3.03,32.84,2.99,74.92,34.7,84c24.99,7.16,49.43-11.89,67.18-30.88
	c69.75-74.63,116.24-170.7,131.47-271.71c2.84-18.82,0.66-43.97-17.77-48.73c-15.46-3.99-29.04,10.41-38.35,23.39
	c-65.3,91.12-119.71,190.03-161.71,293.96c-7.66,18.96-14.18,42.81-0.54,58.05c16.59,18.54,47.21,7.97,68-5.71
	c82.95-54.59,144.05-141.46,167.38-237.98c5.1-21.09,8.43-43.36,2.93-64.34c-5.5-20.99-21.71-40.39-43.12-43.88
	c-25.48-4.15-48.85,14.19-66.58,32.96c-49.95,52.9-85.51,119.25-101.91,190.13c-10.02,43.31-5.99,100.45,35.35,116.78
	c27.81,10.99,59.11-3.08,83.54-20.32c79.95-56.44,130.7-152.15,132.58-249.99c0.38-19.71-1.31-40.18-10.84-57.43
	c-9.53-17.26-28.58-30.49-48.13-27.98c-21.57,2.76-36.48,22.43-47.72,41.05c-49.88,82.63-78.31,178.09-81.76,274.55
	c-0.86,23.9,3.29,53.25,25.53,62.03c19.56,7.73,40.71-5.8,56.51-19.69c84.26-74.08,138.98-180.87,149.92-292.53
	c3.04-31.01-5.84-72.54-36.9-74.86c-17.89-1.33-33.09,12.34-45.05,25.72c-55.38,61.96-93.67,139.03-109.6,220.59
	c-7.33,37.52-5.07,85.39,29.2,102.31c30.7,15.15,67.03-5.27,91.8-28.9c56.07-53.48,91.46-128.12,97.38-205.38
	c2.61-34.08-8.33-77.88-42.19-82.62c-24.69-3.46-45.83,17.04-60.78,37c-41.89,55.91-70.22,121.9-81.89,190.77
	c-6.23,36.73-2.5,83.54,31.63,98.49c28.77,12.6,61.39-6.08,84.8-27.02c55.96-50.05,95.57-118.09,111.47-191.46
	c7.81-36.04,1.82-85.29-34.22-93.12c-24.47-5.32-47.41,13.19-63.89,32.04c-40.1,45.88-68.17,102.17-80.71,161.8
	c-6.46,30.76-4.19,70.83,24.73,83.15c24.85,10.58,52.29-7.22,71.78-25.92c52.77-50.63,91.64-115.61,111.28-186.06
	c5.06-18.15,8.86-37.44,4.2-55.69s-20.02-34.98-38.85-35.54c-21.62-0.64-38.09,18.63-49.82,36.8
	c-41.92,64.91-68.45,139.69-76.84,216.5c-2.23,20.42-0.69,45.67,17.6,55.02c19.41,9.92,41.73-5.94,56.81-21.68
	c53.62-55.99,94.21-124.38,117.67-198.26c7.99-25.15,9.66-60.28-14.84-70.09c-20.93-8.38-42.44,10.03-56.5,27.66
	c-51.16,64.18-86.73,140.71-102.8,221.21c-6.01,30.09-3.34,70.63,26.09,79.31c20.64,6.09,41.29-8.59,56.86-23.44
	c56.77-54.13,98.96-123.42,120.99-198.71c7.48-25.58,8.21-60.9-16.63-70.54c-18.86-7.32-38.99,6.49-53.4,20.69
	c-50.57,49.82-85.13,115.65-97.44,185.56c-3.9,22.17-2.08,50.96,18.87,59.23c17.62,6.95,36.42-5.98,50.31-18.87
	c85.48-79.33,142.9-188.32,159.98-303.68c3.42-23.09-0.95-54.8-24.12-57.66c-14.65-1.8-26.99,10.25-36.46,21.57
	c-58.89,70.37-104.16,152.11-132.58,239.36c-8.42,25.87-14.33,57.34,3.69,77.72c23.52,26.6,67.71,13.24,96.72-7.24
	c68.56-48.4,114.91-127.06,124.02-210.49c2.2-20.17,2.18-41.33-6.18-59.82c-8.36-18.49-26.82-33.6-47.09-32.7
	c-23.62,1.05-41.03,21.86-54.03,41.6c-42.05,63.86-71.7,135.86-86.81,210.81c-4.27,21.15-6.26,46.21,9.2,61.27
	c22.7,22.12,60.6,4.21,84.72-16.36c82.72-70.53,142.08-168.03,166.75-273.91c6.61-28.35,2.07-69.35-26.96-71.5
	c-16.73-1.24-30.24,12.83-40.62,26.01c-71.18,90.45-121.61,197.13-146.32,309.54c-5.33,24.24-7.4,54.38,12.65,69.01
	c23.03,16.81,55.05-0.81,76.17-19.97c74.89-67.97,126.11-161.54,143-261.25c6.11-36.07,0.06-84.28-35.55-92.65
	c-29.79-7-55.71,20.68-72.09,46.53c-49.47,78.03-80.69,167.55-90.49,259.42c-2.7,25.29-1.21,55.97,20.59,69.07
	c25.48,15.31,57.13-5.32,78.16-26.32c75.63-75.5,131.21-170.91,159.6-273.93c5.49-19.93,7.68-46.07-10.12-56.6
	c-18.39-10.88-40.77,4.97-55.49,20.46c-67.61,71.14-119.37,157.25-150.48,250.33c-8.2,24.53-12.53,56.97,8.93,71.41
	c22.52,15.16,52.12-3.54,71.3-22.76c68.79-68.94,118.73-156.52,143.01-250.83c5.09-19.79,7.61-44.4-8.27-57.26
	c-20.23-16.37-49.93,1.12-67.83,20.01c-57.09,60.28-92.16,140.98-97.26,223.84c-1.56,25.3,2.39,55.55,24.83,67.34
	c30.22,15.88,63.56-14.71,82.3-43.26c34.38-52.37,62-109.19,81.94-168.58c6.67-19.86,10.5-46.17-6.88-57.87
	c-20.51-13.81-46.41,7.61-60.13,28.18c-56.04,84.03-79.97,188.93-65.89,288.95c93.45-63.37,150.3-177.2,144.84-289.97
	c-68.77,78.17-111.73,178.69-120.7,282.42c87.98-67.91,148.94-169.89,167.09-279.54c-66.31,55.71-110.31,137.28-120.43,223.29
	c-5.13,43.53,7.83,99.8,50.99,107.43c26.31,4.65,51.38-12.07,71.54-29.6c76.28-66.34,130.39-157.74,151.87-256.52
	c4.54-20.89,7.64-42.84,2.07-63.48c-5.56-20.64-21.69-39.71-42.85-42.82c-27.51-4.05-51.28,18.52-68.3,40.52
	c-47.99,62.03-81.57,135.14-97.36,211.96c-4.94,24.06-8.13,49.23-1.98,73.02c6.15,23.78,23.44,46.02,47.32,51.78
	c29.29,7.06,58.34-11.49,80.98-31.38c80-70.29,133.17-170.4,146.61-276.05c2.42-19.03,3.47-39.04-3.94-56.74
	c-7.41-17.69-25.54-32.22-44.55-29.64c-16.98,2.3-29.4,16.68-39.79,30.29c-71.11,93.13-126.66,198.11-163.67,309.28
	c-8.02,24.1-12.59,56.26,8.84,69.9c19.37,12.33,44.5-0.94,62.74-14.88c142.01-108.56,276.52-452.58,248.08-457.62
	c-44.39-7.85-202.13,192.45-250.77,321.63c-9.85,26.17-14.91,62.21,9.27,76.27c21.32,12.39,47.67-3.43,66.08-19.83
	c44.23-39.4,81.78-86.27,110.59-138.02c14.1-25.32,23.95-61.99,0.71-79.31c-23.01-17.13-55.15,2.29-74.97,23.04
	c-38.64,40.47-68.82,88.97-88.06,141.52c-6.85,18.72-11.53,41.96,1.86,56.72c16.77,18.5,47.5,9.09,68.55-4.35
	c62.55-39.94,108.29-105.38,124.3-177.85c-67.63,40.42-112.98,115.85-116.95,194.53c-0.84,16.57,1.48,35.89,15.45,44.84
	c18.94,12.14,43.26-3.5,58.86-19.71c41.16-42.77,72-95.41,89.18-152.22c5.66-18.73,9.86-38.79,4.96-57.73
	c-4.9-18.94-21.36-36.14-40.93-35.91c-27.88,0.32-43.54,31.81-50.76,58.74c-11.51,42.92-18.09,87.16-19.58,131.57
	c-0.65,19.34,0.15,40.21,11.8,55.66c25.17,33.36,80.42,17.52,109.19-12.78s46.48-71.62,81.48-94.45"/>
</svg>
