<?xml version="1.0" encoding="utf-8"?>
<!-- Generator: Adobe Adobe Illustrator 24.2.0, SVG Export Plug-In . SVG Version: 6.00 Build 0)  -->
<svg version="1.1" id="Layer_1" xmlns="http://www.w3.org/2000/svg" xmlns:xlink="http://www.w3.org/1999/xlink" x="0px" y="0px"
	 viewBox="0 0 1920 1080" preserveAspectRatio="none" style="enable-background:new 0 0 1920 1080;" xml:space="preserve">
<style type="text/css">
	.st0{fill:#FFFFFF;stroke:#000000;stroke-miterlimit:10;}
	.st1{fill:none;stroke:#000000;stroke-miterlimit:10;}
</style>
<path class="st1 scrib2" d="M1837.42,662.96c2.12,7.59,4.24,15.18,6.37,22.77c-35.68-36.86-59.77-84.77-68.08-135.39
	c32.05,48.56,41.79,111.23,25.99,167.23c-36.33-39.3-58.38-91.53-61.2-144.98c24.66,34.38,40.13,75.29,44.41,117.38
	c1.28,12.64-0.45,28.64-12.36,33.06c-15.78,5.86-27.92-14.37-32.67-30.51c-15.23-51.74-30.46-103.49-45.69-155.23
	c32.59,57.36,43.64,126.63,30.5,191.28c-22.62-60.08-45.24-120.15-67.86-180.23c19.63,42.07,31.93,87.54,36.19,133.77
	c1,10.82-0.02,24.42-10.03,28.67c-12.36,5.25-23.74-9-29.36-21.2c-23.18-50.36-39.63-103.81-48.77-158.49
	c25.7,43.85,44.7,91.6,56.16,141.11c3.1,13.39,1.62,32.81-12.07,34.09c-8.83,0.83-15.57-7.47-20.2-15.05
	c-27.42-44.91-43.45-96.72-46.17-149.28c31.1,47.89,50.21,103.5,55.11,160.4c0.79,9.15-0.11,20.62-8.55,24.24
	c-11.2,4.79-20.9-9.09-25.27-20.46c-21.43-55.84-42.87-111.67-64.3-167.51c34.93,53.52,54.13,117.16,54.64,181.06
	c-44.99-47.44-78.14-106.03-95.64-169.03c43.74,47.68,69.61,111.39,71.48,176.07c-55.54-48.51-91.28-119.06-97.54-192.54
	c35.71,42.83,59.05,95.86,66.5,151.12c1.39,10.33,0.65,23.57-8.99,27.53c-12.03,4.94-22.41-9.65-27.3-21.7
	c-24.72-60.79-49.43-121.57-74.15-182.36c42.19,75.87,74.68,157.14,96.43,241.18c-32.29-66.22-64.58-132.44-96.87-198.66
	c37.74,53.47,61.49,116.72,68.28,181.81c-50.34-54.97-83.2-125.71-92.72-199.64c49.88,56.01,80.55,128.83,85.79,203.65
	c-43.47-54.24-76.34-116.94-96.21-183.55c42.68,53.77,69.88,119.67,77.55,187.89c-50.55-57.08-86.75-126.75-104.4-200.92
	c41.72,48.02,68.72,108.65,76.51,171.78c-39.66-57.34-72.52-119.36-97.7-184.37c45.76,57.1,77.84,125.1,92.8,196.73
	c-51.65-59.61-91.64-129.29-117.05-203.96c44.89,53.84,77.22,118.09,93.69,186.22c-52.52-51.73-93.39-115.23-118.72-184.46
	c46.98,54.52,80.44,120.6,96.6,190.73c-60.99-71.39-113.36-150.14-155.59-234c57.79,70.4,102.83,151.22,132.29,237.4
	c-59.01-59.13-104.88-131.31-133.37-209.85c62.17,62.63,104.3,144.86,118.83,231.9c-67.83-59.79-119.86-137.36-149.44-222.81
	c57.67,64,101.56,140.36,127.85,222.4c-47.24-68.08-94.47-136.16-141.71-204.24c48.47,67.08,89.54,139.51,122.23,215.54
	c-75.05-64.47-136.25-144.98-178.28-234.55c55.63,42.63,96.94,103.64,115.87,171.13c-61.95-63.09-117.48-132.48-165.45-206.75
	c67.33,75.07,121.38,162.02,158.87,255.64c-60.09-82.7-120.17-165.39-180.26-248.09c61.18,62.79,111.31,136.32,147.41,216.21
	c-65.97-57.25-121.78-126.17-164.07-202.6c56.77,54.29,102.21,120.38,132.57,192.83c-60.91-51.8-113.58-113.27-155.44-181.39
	c61.95,59.2,112.54,130.24,148.24,208.13c-79.53-67-148.09-146.99-202.12-235.83c76.81,72.23,140.32,158.55,186.42,253.38
	c-74.62-75.58-144.12-156.22-207.87-241.17c71.05,70.97,132.74,151.3,182.99,238.24C1061.08,665.96,995,591.61,935.07,512.6
	c61.26,53.85,112.26,119.34,149.46,191.92c-75.56-44.8-136.73-113.47-172.54-193.68c69.13,39.45,121.4,107.4,141.82,184.33
	c-91.48-51.73-162.62-138.39-195.55-238.19c87.23,64.31,154.58,155.21,190.71,257.39c-72.29-63.33-137.72-134.48-194.78-211.82
	C926.7,572.22,985.52,656.09,1026.33,748c-86.48-63.18-157.7-147.1-205.96-242.71c74.74,54.57,133.88,130.26,168.78,215.97
	c-74.75-51.04-135.18-122.83-172.72-205.19c67.88,57.92,121,133.02,153.02,216.31c-80.95-67.87-148.05-152.2-196.01-246.33
	c80.12,65.11,142.77,151.51,179.78,247.89c-83.32-60.22-151.9-140.67-198.18-232.46c59.05,44.6,109.24,100.88,146.83,164.63
	c5.85,9.93,11.21,23.23,3.86,32.11c-8.83,10.67-26.08,4.03-37.4-3.96c-69.71-49.15-120.25-124.78-139-207.99
	C810.74,527.01,870,609.23,882.89,699.35c-68.67-57.34-125.01-129.38-164.12-209.84c80.58,68.72,144.02,157.39,183.03,255.84
	c-70.24-51.28-128.18-119.27-167.68-196.75c64.9,36.5,114.19,99.76,133.72,171.61c-78.63-40.56-136.69-118.84-152.69-205.85
	c72.73,44.79,130.98,112.71,164.15,191.42c4.11,9.74,6.85,23.17-1.92,29.07c-8.59,5.77-19.8-1.4-27.42-8.4
	c-68.81-63.14-124.97-139.99-164.23-224.72c66.52,60.76,115,141.01,137.84,228.16c-74.52-67.34-135.9-149.16-179.69-239.55
	c76.47,68.96,134.15,158.54,165.29,256.69c-85.5-82.1-158.55-177.15-215.89-280.9c85.59,69.23,152.6,161.21,192.27,263.9
	c-82.41-76.47-152.68-165.99-207.38-264.21c83.1,76.91,150.68,170.51,197.54,273.58c-68.25-74.52-131.27-153.83-188.45-237.15
	c74.66,70.72,133.8,157.74,172.06,253.19c-77.77-77.17-144.58-165.37-197.8-261.14c74.06,67.84,134.43,150.56,176.46,241.77
	c-67.72-66.21-129.54-138.46-184.48-215.6c69.43,69.62,129.3,148.75,177.4,234.5c-76.35-67.18-142.37-146.09-195.03-233.1
	c75,63.17,134.18,144.98,170.69,235.99C630.44,702.27,567.87,628.3,525.7,544.03c45.25,40.85,81.46,91.67,105.3,147.78
	C568.94,652.29,517.01,597,481.46,532.58c59.96,38.42,109.61,92.77,142.46,155.96c3.33,6.41,6.48,14.28,2.84,20.53
	c-6.25,10.73-22.73,4.31-32.42-3.45c-58.18-46.65-106.53-105.52-140.97-171.67c78.61,50.67,138.85,129.22,167.39,218.28
	c-80.77-63.88-148.85-143.76-199.12-233.63c71.39,55.47,126.34,131.85,156.25,217.17c-75.67-75.33-142.22-159.8-197.75-251
	c69.62,65.94,122.91,149.01,153.83,239.78c-74.42-63.11-135.12-142.3-176.74-230.55c70.7,56.36,123.92,134.34,150.62,220.72
	c-75.53-57.68-136.47-134.3-175.67-220.87c70.53,59.78,122.65,140.99,147.62,230.02c-80.07-69.6-143.97-157.7-185.27-255.42
	c75.43,71.17,133.33,160.78,167.22,258.78c-71.41-65.8-130.8-144.62-174.35-231.41c74.58,67.79,131.15,155.23,162.41,251.04
	c-85.42-76.62-158.19-167.3-214.49-267.29c82.92,70.66,148.5,161.53,189.41,262.5c-87.07-75.72-160.03-167.62-214.05-269.58
	c77.76,58.36,137.97,139.82,170.93,231.29c-72.51-43.55-127.3-115.72-149.75-197.27c74.17,53.71,129.86,132.47,155.79,220.3
	c-80.08-59.18-145.46-138.08-188.74-227.76c64.42,53.68,110.64,128.83,129.5,210.54c-69.13-62.7-124.91-140.05-162.55-225.45
	c64.13,60,112.65,136.54,139.53,220.14c-62.19-53.74-113.31-120.23-149.26-194.14c76.59,63.97,136.97,147.21,173.99,239.89
	c-78.93-62.27-144.05-141.95-189.35-231.69c73.48,50.58,127.07,129.3,147.17,216.22c-78.97-67.49-143.23-152.11-187.06-246.29
	c90.57,67.63,155.04,169.32,177.58,280.08c-74.96-78.8-134.9-171.84-175.67-272.67c59.47,65.94,103.22,145.97,126.6,231.63
	C167.76,667.79,116.86,597.2,79.85,519.92c55.39,41.57,96.82,101.42,116.23,167.89c-60.81-29.88-108.73-84.98-129.89-149.34
	c74.06,44.76,132.08,115.49,161.5,196.88c-69.02-50.63-125.8-117.84-164.2-194.34c59.44,38.38,99.81,104.91,106.41,175.37
	c-52.29-39.01-89.66-97.53-103.06-161.38c39.37,38.82,66.25,90.12,75.77,144.59c-40.33-40.04-73.77-87.01-98.39-138.24
	c41.8,48.47,74.84,104.47,97.04,164.51c-29.31-34.63-58.63-69.26-87.94-103.89c16.93,26.61,33.86,53.22,50.79,79.83
	c-17.69-5.23-32.62-19.07-39.17-36.32"/>
</svg>
