<?xml version="1.0" encoding="utf-8"?>
<!-- Generator: Adobe Adobe Illustrator 24.2.0, SVG Export Plug-In . SVG Version: 6.00 Build 0)  -->
<svg version="1.1" id="Layer_1" xmlns="http://www.w3.org/2000/svg" xmlns:xlink="http://www.w3.org/1999/xlink" x="0px" y="0px"
	 viewBox="0 0 1920 1080" style="enable-background:new 0 0 1920 1080;" xml:space="preserve">
<style type="text/css">
	.st0{fill:#FFFFFF;stroke:#000000;stroke-miterlimit:10;}
</style>
<path class="st0 scrib" d="M1792.33,667.58c-21.46-10.53-32.48-38.45-23.99-60.8c2.53,19.25-25.52,30.11-42.2,20.16
	c-16.68-9.94-23.45-30.28-28.95-48.9c-6.01-20.36-9.36-47.75,9.31-57.85c17.77-9.61,39.9,8.01,44.34,27.72
	c7.46,33.13-22.91,69.04-56.82,67.19c-33.9-1.86-60.18-40.87-49.15-72.99c2.36-6.87,7.1-13.98,14.31-14.89
	c11.98-1.52,18.19,13.67,20.27,25.56c5.33,30.46,10.65,60.92,15.98,91.37c2.2,12.56,1.92,29.5-10.25,33.29
	c-12.47,3.88-22.29-10.62-27.32-22.67c-22.98-55.06-45.96-110.12-68.94-165.18c26.54,58.61,41.88,122.27,44.96,186.53
	c0.73,15.22-3.4,35.44-18.59,36.69c-10.96,0.91-19.17-9.48-24.88-18.88c-43.15-71.12-68.87-152.74-74.27-235.75
	c51.4,67.47,73.4,156.57,59.32,240.21c-39.43-68.16-63.51-145.14-69.95-223.61c44.19,68.42,63.15,152.76,52.5,233.51
	c-41.01-69.56-68.33-147.15-79.94-227.06c31.46,76.42,50.14,158.09,55.04,240.59c-41.36-73.68-72.72-152.97-92.95-235.02
	c19.35,80.53,38.7,161.06,58.04,241.59c-28.34-79.81-56.68-159.62-85.02-239.43c20.39,79.99,28.73,163.04,24.65,245.48
	c-68.25-80.09-109.93-182.46-117.02-287.45c41.95,82.34,60.11,176.63,51.74,268.67c-41.79-75.05-58-164.05-45.37-249.01
	c34.88,79.6,42.69,170.79,21.83,255.16c-2.26,9.16-7.03,20.1-16.46,20.54c-9.31,0.43-15.08-9.74-18.38-18.46
	c-31.81-84.19-41.88-176.49-28.95-265.55c29.35,66.92,36.27,143.44,19.41,214.54c-3.05,12.85-10.88,28.42-24,26.89
	c-10.11-1.18-15.67-12.1-19.1-21.68c-23.38-65.36-30.62-136.42-20.91-205.15c25.16,74.78,30.65,156.09,15.77,233.58
	c-43.72-84.59-64.64-180.82-59.99-275.92c39.69,73.49,60.82,156.92,60.89,240.45c0.01,16.22-2.53,35.44-16.9,42.98
	c-18.11,9.5-38.7-7.07-51.37-23.14c-53.41-67.73-84.74-152.6-88.15-238.79c60.98,49.79,103.21,122.02,116.69,199.58
	c3.14,18.07,2.4,41.06-14.05,49.2c-17.01,8.41-36.11-6.11-48.75-20.26c-35.37-39.6-64-85.19-84.32-134.25
	c-5.47-13.2-7.21-33.36,6.6-37.02c10.5-2.78,19.46,7.75,24.65,17.29c32.11,59.03,36.83,132.26,12.56,194.92
	c-43.88-62.1-63.84-140.66-54.93-216.18c3.36,51.09-8.92,103.1-34.77,147.3c-6.66-33.82-13.08-70.17,0.82-101.72
	c13.89-31.55,57.12-52.14,84.1-30.69c19.91,15.83,21.59,45,20.84,70.42c-0.73,24.42-2.34,49.56-12.95,71.57
	c-10.61,22.01-32.35,40.34-56.78,39.81c-34.12-0.75-56.92-35.24-68.88-67.21c-14.71-39.33-22.61-81.2-23.24-123.19
	c-0.4-26.74,7.17-59.86,33.14-66.22c29.64-7.25,51.8,26.62,61.93,55.4c20.65,58.63,33.96,119.85,39.53,181.76
	c2.03,22.56-0.69,51.25-21.99,58.95c-20.46,7.4-40.63-11.2-53.08-29.05c-45.1-64.65-68-144.5-64.01-223.23
	c47.8,67.72,66.72,155.14,51.2,236.57C958.91,642.36,926.4,543,922.47,442.37c41.93,76.07,62.85,163.58,59.86,250.39
	c-60.57-68.59-98.57-156.78-106.83-247.9c28.13,86.14,41.91,176.96,40.59,267.57c-39.16-73.1-57.9-157-53.56-239.82
	c31.37,84.01,48.3,173.39,49.83,263.05c-47.37-83.34-70.53-180.25-65.96-276.01c35.51,65.7,52.21,141.44,47.61,215.98
	c-0.51,8.23-3.4,18.72-11.62,19.36c-6.16,0.48-10.84-5.24-14.2-10.42c-45.52-70.05-68.51-154.5-64.76-237.96
	c37.75,80.92,61.5,168.36,69.88,257.26c-64.16-72.47-106.59-163.94-120.47-259.73c58.15,71.85,92.94,162.3,97.94,254.6
	c0.34,6.24,0.04,13.57-5.05,17.19c-7.77,5.53-17.85-2.56-23.7-10.1c-51.32-66.04-87.98-143.39-106.61-224.92
	c-4.26-18.64-4.22-43.89,13.78-50.36c18.53-6.66,34.71,14.07,42.92,31.97c36.44,79.42,57.53,165.84,61.78,253.12
	c0.53,10.89-2.17,25.41-13.03,26.41c-7.24,0.66-13-5.69-17.33-11.53c-63.26-85.15-100.22-189.55-104.63-295.53
	c45.07,87.26,67.05,186.33,63.12,284.46c-41.82-79.21-66.93-167.19-73.22-256.54c47.01,74.83,68.82,165.19,61.11,253.22
	c-42.49-62.39-52.74-145.54-26.67-216.38c6.42,51.27,1.18,103.97-15.2,152.97c-4.2,12.56-10.04,25.94-21.85,31.95
	c-23.76,12.09-49.33-13.66-60.25-37.97c-27.23-60.62-27.18-132.89,0.14-193.47c16.25,75.72,24.79,153.1,25.44,230.55
	c-24.09-83.64-48.18-167.29-72.27-250.93c33.76,86.67,57.09,177.4,69.33,269.61c1.9,14.35,1.54,32.6-11.58,38.72
	c-13.75,6.41-28.41-6.51-37.54-18.62c-65.16-86.38-96.47-197.62-85.94-305.31c56.04,67.63,85.31,156.85,80.22,244.53
	c-0.35,6.1-1.67,13.36-7.29,15.73c-6.73,2.83-13.54-3.57-17.93-9.41c-50.8-67.54-82.84-149.04-91.63-233.09
	c55.96,83.66,89.12,182.42,94.98,282.91c-80.39-76.95-132.87-182.46-145.72-293c56.3,64.09,90.37,147.34,95.15,232.51
	c-72.74-59.06-128.68-138.6-159.67-227.02c65.06,72.09,108.4,163.54,123.02,259.54c0.81,5.33,1.27,11.52-2.51,15.35
	c-6.41,6.48-17.17,0.13-23.63-6.29c-78.3-77.85-129.79-182.2-143.94-291.71c62.63,60.15,103.25,142.74,112.65,229.06
	c1.11,10.2,0.32,23.08-9.09,27.16c-8.34,3.62-17.51-2.46-24.35-8.45c-62.17-54.46-103.68-131.96-114.55-213.9
	c49.96,58.03,82.84,130.6,93.53,206.43c1.75,12.39,1.56,27.75-9.25,34.05c-12.95,7.55-28.3-4.57-37.96-16.03
	c-41.19-48.88-74.54-104.36-98.39-163.67c-5.68-14.14-9.16-33.81,3.93-41.61c14.24-8.49,30.63,6.9,39.56,20.88
	c32.31,50.6,57.01,106.05,72.99,163.92c2.99,10.84,4.63,24.8-4.65,31.14c-9.66,6.59-22.51-0.87-31.35-8.54
	c-63.77-55.3-106.02-134.8-116.19-218.59c68.04,58.81,101.96,154.58,86.1,243.1c-66.6-49.3-113.59-124.39-128.83-205.84
	c-2.04-10.9-1.94-25.05,8.16-29.63c11.59-5.26,22.95,7.58,28.78,18.89c21.04,40.83,34.46,85.56,39.38,131.22
	c1.07,9.96,0.38,22.46-8.71,26.67c-9.56,4.43-19.89-4.17-26.42-12.44c-23.19-29.36-38.95-64.54-45.42-101.38
	c1.08,21.86,2.17,43.73,3.25,65.59c-34.29-31.41-52.41-79.63-47.29-125.85c30.63,21.51,45.91,62.73,36.69,99
	c-17.98,2.3-36.73-9.72-42.16-27.01"/>
</svg>
