<?xml version="1.0" encoding="utf-8"?>
<!-- Generator: Adobe Adobe Illustrator 24.2.0, SVG Export Plug-In . SVG Version: 6.00 Build 0)  -->
<svg version="1.1" id="Layer_1" xmlns="http://www.w3.org/2000/svg" xmlns:xlink="http://www.w3.org/1999/xlink" x="0px" y="0px"
	 viewBox="0 0 1920 1080" style="enable-background:new 0 0 1920 1080;" xml:space="preserve">
<style type="text/css">
	.st0{fill:none;stroke:#000000;stroke-miterlimit:10;}
	.st1{fill:#FFFFFF;stroke:#000000;stroke-miterlimit:10;}
</style>
<path class="st0 scrib1" d="M1871.34,529.2c1.5,25.35,2.61,52.42-10.31,74.28c-12.92,21.86-45.62,33.75-64.36,16.61
	c-11.85-10.84-13.91-28.62-13.49-44.67c1.21-45.2,16.43-89.92,43.06-126.46c-7.26,65.97-37.19,129.23-83.6,176.67
	c-15.42,15.77-45.62,27.9-55.74,8.3c-4.79-9.28-1.1-20.53,3.03-30.13c22.52-52.4,56.53-99.82,98.94-137.96
	c-7.95,92.84-72.88,178.43-160.14,211.1c11.71-72.46,63.78-137.04,132.11-163.84c-26.25,84.89-87.34,158.42-165.98,199.79
	c26.82-73.41,66.02-142.29,115.46-202.82c-43.02,65.75-98.82,123.11-163.36,167.92c32.06-76.88,77.92-147.98,134.73-208.91
	c-32.98,76.47-84.17,145.01-148.12,198.35c27.38-79.68,76.24-151.87,140.04-206.9c-26.66,96.32-83.24,184.13-159.93,248.21
	c-6.93,5.79-16.14,11.71-24.34,7.92c-10.66-4.92-8.98-20.46-5.12-31.55c24.83-71.41,68.83-136.05,126.15-185.35
	c-33.38,88.23-92.01,166.74-167.13,223.8c-9.3,7.06-22.15,13.95-31.84,7.44c-11.63-7.81-6.51-25.78,0.13-38.11
	c34.96-64.93,78.86-125.04,130.07-178.1c-17.87,55.17-49.28,105.9-90.7,146.48c-10,9.8-23.85,19.69-36.86,14.51
	c-17.73-7.07-15.2-32.95-7.86-50.56c23.03-55.23,62.5-103.48,112.08-136.99c-26.73,82.22-83.51,154.31-157.18,199.57
	c-10.04,6.17-22.27,12.01-33.16,7.51c-18.8-7.77-14.78-35.47-6.41-54.01c28.11-62.21,68.63-118.77,118.49-165.4
	c-27.45,92.8-89.75,174.84-171.77,226.21c35.16-78.38,88.27-148.64,154.08-203.85c-39.04,92.34-107.01,172.19-191.91,225.5
	c30.17-88.09,84.16-167.9,154.7-228.68c-34.55,103.66-112.28,192.18-210.61,239.84c35.2-93.77,92.32-179.23,165.52-247.6
	c-33.74,96.32-102.87,179.79-191.22,230.88c31.77-80.47,87.01-151.5,157.18-202.1c-33.3,67.25-81.96,126.84-141.2,172.9
	c-12.54,9.75-33.62,17.56-41.68,3.87c-5.07-8.6-0.2-19.45,4.82-28.08c31.73-54.48,71.07-104.52,116.53-148.21
	c-33.82,71.02-93.73,129.26-165.67,161.07c40.51-68.26,93.62-129.01,155.85-178.28c-40.74,74.55-101.11,138.26-173.37,182.93
	c43.24-67.74,95.46-129.75,154.85-183.9c-41.05,83.21-104.71,155.13-182.32,205.98c31.92-82.84,88.34-156.07,160.29-208.06
	c-27.73,82.32-83.48,154.93-155.85,202.96c-10.55,7-25.4,13.25-34.81,4.79c-10.18-9.16-3.74-25.88,3.58-37.46
	c40.3-63.79,89.98-121.64,146.95-171.11c-31.28,88.56-98.49,163.85-182.94,204.94c12.42-74.02,62.39-140.75,129.93-173.49
	c-10.3,68.36-60.18,129.29-125.16,152.88c9.19-73.1,60.5-139.38,128.97-166.59c-32.05,75.43-97.05,136.17-174.47,163.05
	c18.22-70.86,66.84-133.35,131.03-168.44c-33.46,64.68-85.79,119.45-148.88,155.81c40.66-60.68,90.64-115.1,147.65-160.76
	c-43.86,74.84-109.45,136.78-186.68,176.27c36.74-65.92,84.36-125.76,140.35-176.37c-48.01,66.59-108.72,123.99-177.89,168.19
	c55.63-60.74,111.26-121.47,166.88-182.21c-44.54,77.83-111.55,142.64-190.83,184.54c31.84-63.19,76.34-119.97,130.1-165.99
	c-47.87,65.02-111.34,118.47-183.56,154.57c47.72-68.64,102.77-132.19,163.92-189.21c-66.53,88.84-143.86,169.6-229.73,239.92
	c78.9-58.18,153.59-122.08,223.27-191.03c-66.25,75.57-143.48,141.5-228.51,195.07c61.07-86.92,128.06-169.68,200.36-247.51
	c-72.09,92.84-157.8,175.09-253.52,243.3c89.06-74,172.31-154.99,248.73-241.99c-88.8,100.65-189.03,191.21-298.14,269.38
	c80.63-49.44,153.73-111.14,216-182.32c-70.15,50.98-140.3,101.96-210.44,152.93c77.52-57.27,149.95-121.42,216.16-191.45
	c-61.37,55.9-122.73,111.81-184.1,167.71c48.09-52.42,96.19-104.84,144.28-157.26c-76.9,58.09-153.79,116.17-230.69,174.26
	c78.5-65.29,151.2-137.54,216.99-215.62c-83.12,72.75-166.24,145.49-249.35,218.24c75.12-47.99,144.88-104.34,207.58-167.69
	c-45.5,37.24-91,74.49-136.51,111.73c18.31-58.45,58.37-109.8,110.61-141.78c-62.78,75.18-139.36,138.8-224.77,186.75
	c69.01-68.57,138.02-137.14,207.03-205.71c-61.82,70.97-129.88,136.49-203.15,195.57c46.3-81.99,116.84-150.09,200.4-193.49
	c-35.39,93.03-117.34,166.99-213.51,192.67c27.47-73.26,87.29-133.71,160.26-161.94c-48.23,79.16-127.01,139.17-216.15,164.64
	c68.16-59.6,136.31-119.19,204.47-178.79c-69.34,62.68-145.13,118.23-225.78,165.49c67.16-58.08,134.32-116.15,201.48-174.23
	c-72.54,55.6-145.09,111.2-217.63,166.8c64.6-83.58,135.17-162.56,210.98-236.13C522.62,539.5,440.47,633.2,338.24,693.42
	c42.61-86.9,111.84-160.52,195.95-208.4c-37.87,98.5-125.77,176.24-228.16,201.79c39.5-87.16,103.65-162.98,183.05-216.37
	c-62.76,78.66-138.52,146.91-223.28,201.16c59.09-82.84,124.4-161.25,195.2-234.33c-67.39,67.15-134.77,134.3-202.16,201.45
	c41.51-80.74,99.54-152.94,169.46-210.85c-64.55,102.6-149.98,192.01-249.54,261.16c81.13-87.05,162.27-174.1,243.4-261.16
	c-79.82,79.29-159.64,158.59-239.47,237.88c69.78-47.27,131.13-106.93,180.34-175.35c-59.4,33.82-113.77,76.47-160.75,126.11
	c62.9-52.88,120.06-112.57,170.17-177.7c-60.72,89.56-134.01,170.58-217.06,239.94c68.7-85.76,137.41-171.52,206.11-257.29
	C312.4,518.54,243.31,605.44,159.8,675.15c24.23-75.02,61.54-145.79,109.73-208.18c-57.41,65.34-114.83,130.69-172.24,196.03
	c64.48-42.34,121.91-95.4,169.23-156.32c-57.29,44.19-110.38,93.82-158.33,148c73.31-56.4,136.5-125.93,185.66-204.28
	c-79.91,50.9-152.91,112.61-216.41,182.92C153.99,587.13,219.75,523.21,268.09,448C182.1,494.32,106.35,559.54,47.78,637.71
	c79.01-38.29,146.3-100.35,190.85-176.01c-65.36,33.17-123.37,80.75-168.67,138.37c67.82-26.73,126.25-76.65,163.25-139.46
	c-55.82,29.63-106.59,68.73-149.48,115.14c32.05-13.97,60.18-36.82,80.41-65.33c-36.17,11.41-72.33,22.82-108.5,34.24
	c35.61-13.16,71.21-26.32,106.82-39.48c-21.6,32.38-55.48,56.36-93.2,65.98c16.51-29.9,33.01-59.79,49.52-89.69"/>
<path class="st1" d="M20.07-668.91"/>
</svg>
